<?xml version="1.0" encoding="utf-8"?>
<!-- Svg Vector Icons : http://www.onlinewebfonts.com/icon -->
<!DOCTYPE svg PUBLIC "-//W3C//DTD SVG 1.1//EN" "http://www.w3.org/Graphics/SVG/1.1/DTD/svg11.dtd">
<svg version="1.1" xmlns="http://www.w3.org/2000/svg" xmlns:xlink="http://www.w3.org/1999/xlink" x="0px" y="0px" viewBox="0 0 1000 1000" enable-background="new 0 0 1000 1000" xml:space="preserve">
<metadata> Svg Vector Icons : http://www.onlinewebfonts.com/icon </metadata>
<g><path d="M500,550.6c-27.8,0-50.6,22.9-50.6,50.6c0,18,9.8,34.3,26.1,44.1v49c0,14.7,11.4,24.5,26.1,24.5c14.7,0,26.1-11.4,26.1-24.5v-49c14.7-8.2,26.1-24.5,26.1-44.1C550.6,573.5,527.8,550.6,500,550.6z"/><path d="M500,10C228.9,10,10,228.9,10,500c0,271.1,218.9,490,490,490c271.1,0,490-218.9,490-490C990,228.9,771.1,10,500,10z M720.5,745c0,14.7-11.4,24.5-26.1,24.5H305.6c-14.7,0-26.1-11.4-26.1-24.5V524.5c0-14.7,11.4-24.5,26.1-24.5h42.5V382.4c0-83.3,68.6-151.9,151.9-151.9s151.9,68.6,151.9,151.9c0,14.7-11.4,24.5-26.1,24.5c-14.7,0-26.1-11.4-26.1-24.5c0-55.5-45.7-101.3-101.3-101.3c-55.5,0-101.3,45.7-101.3,101.3V500h204.2h50.6h42.5c14.7,0,26.1,11.4,26.1,24.5V745z"/></g>
</svg>