<?xml version="1.0" standalone="yes"?>
<svg version="1.1" xmlns="http://www.w3.org/2000/svg" xmlns:xlink="http://www.w3.org/1999/xlink" xmlns:ev="http://www.w3.org/2001/xml-events" width="407" height="407" shape-rendering="crispEdges">
<rect width="11" height="11" x="0" y="0" style="fill:#000"/><rect width="11" height="11" x="11" y="0" style="fill:#000"/><rect width="11" height="11" x="22" y="0" style="fill:#000"/><rect width="11" height="11" x="33" y="0" style="fill:#000"/><rect width="11" height="11" x="44" y="0" style="fill:#000"/><rect width="11" height="11" x="55" y="0" style="fill:#000"/><rect width="11" height="11" x="66" y="0" style="fill:#000"/><rect width="11" height="11" x="99" y="0" style="fill:#000"/><rect width="11" height="11" x="110" y="0" style="fill:#000"/><rect width="11" height="11" x="132" y="0" style="fill:#000"/><rect width="11" height="11" x="143" y="0" style="fill:#000"/><rect width="11" height="11" x="154" y="0" style="fill:#000"/><rect width="11" height="11" x="198" y="0" style="fill:#000"/><rect width="11" height="11" x="220" y="0" style="fill:#000"/><rect width="11" height="11" x="242" y="0" style="fill:#000"/><rect width="11" height="11" x="253" y="0" style="fill:#000"/><rect width="11" height="11" x="264" y="0" style="fill:#000"/><rect width="11" height="11" x="275" y="0" style="fill:#000"/><rect width="11" height="11" x="297" y="0" style="fill:#000"/><rect width="11" height="11" x="308" y="0" style="fill:#000"/><rect width="11" height="11" x="330" y="0" style="fill:#000"/><rect width="11" height="11" x="341" y="0" style="fill:#000"/><rect width="11" height="11" x="352" y="0" style="fill:#000"/><rect width="11" height="11" x="363" y="0" style="fill:#000"/><rect width="11" height="11" x="374" y="0" style="fill:#000"/><rect width="11" height="11" x="385" y="0" style="fill:#000"/><rect width="11" height="11" x="396" y="0" style="fill:#000"/>
<rect width="11" height="11" x="0" y="11" style="fill:#000"/><rect width="11" height="11" x="66" y="11" style="fill:#000"/><rect width="11" height="11" x="88" y="11" style="fill:#000"/><rect width="11" height="11" x="121" y="11" style="fill:#000"/><rect width="11" height="11" x="132" y="11" style="fill:#000"/><rect width="11" height="11" x="176" y="11" style="fill:#000"/><rect width="11" height="11" x="209" y="11" style="fill:#000"/><rect width="11" height="11" x="220" y="11" style="fill:#000"/><rect width="11" height="11" x="242" y="11" style="fill:#000"/><rect width="11" height="11" x="330" y="11" style="fill:#000"/><rect width="11" height="11" x="396" y="11" style="fill:#000"/>
<rect width="11" height="11" x="0" y="22" style="fill:#000"/><rect width="11" height="11" x="22" y="22" style="fill:#000"/><rect width="11" height="11" x="33" y="22" style="fill:#000"/><rect width="11" height="11" x="44" y="22" style="fill:#000"/><rect width="11" height="11" x="66" y="22" style="fill:#000"/><rect width="11" height="11" x="132" y="22" style="fill:#000"/><rect width="11" height="11" x="143" y="22" style="fill:#000"/><rect width="11" height="11" x="165" y="22" style="fill:#000"/><rect width="11" height="11" x="176" y="22" style="fill:#000"/><rect width="11" height="11" x="187" y="22" style="fill:#000"/><rect width="11" height="11" x="198" y="22" style="fill:#000"/><rect width="11" height="11" x="209" y="22" style="fill:#000"/><rect width="11" height="11" x="231" y="22" style="fill:#000"/><rect width="11" height="11" x="253" y="22" style="fill:#000"/><rect width="11" height="11" x="286" y="22" style="fill:#000"/><rect width="11" height="11" x="308" y="22" style="fill:#000"/><rect width="11" height="11" x="330" y="22" style="fill:#000"/><rect width="11" height="11" x="352" y="22" style="fill:#000"/><rect width="11" height="11" x="363" y="22" style="fill:#000"/><rect width="11" height="11" x="374" y="22" style="fill:#000"/><rect width="11" height="11" x="396" y="22" style="fill:#000"/>
<rect width="11" height="11" x="0" y="33" style="fill:#000"/><rect width="11" height="11" x="22" y="33" style="fill:#000"/><rect width="11" height="11" x="33" y="33" style="fill:#000"/><rect width="11" height="11" x="44" y="33" style="fill:#000"/><rect width="11" height="11" x="66" y="33" style="fill:#000"/><rect width="11" height="11" x="110" y="33" style="fill:#000"/><rect width="11" height="11" x="121" y="33" style="fill:#000"/><rect width="11" height="11" x="132" y="33" style="fill:#000"/><rect width="11" height="11" x="154" y="33" style="fill:#000"/><rect width="11" height="11" x="165" y="33" style="fill:#000"/><rect width="11" height="11" x="176" y="33" style="fill:#000"/><rect width="11" height="11" x="198" y="33" style="fill:#000"/><rect width="11" height="11" x="209" y="33" style="fill:#000"/><rect width="11" height="11" x="242" y="33" style="fill:#000"/><rect width="11" height="11" x="253" y="33" style="fill:#000"/><rect width="11" height="11" x="275" y="33" style="fill:#000"/><rect width="11" height="11" x="286" y="33" style="fill:#000"/><rect width="11" height="11" x="297" y="33" style="fill:#000"/><rect width="11" height="11" x="330" y="33" style="fill:#000"/><rect width="11" height="11" x="352" y="33" style="fill:#000"/><rect width="11" height="11" x="363" y="33" style="fill:#000"/><rect width="11" height="11" x="374" y="33" style="fill:#000"/><rect width="11" height="11" x="396" y="33" style="fill:#000"/>
<rect width="11" height="11" x="0" y="44" style="fill:#000"/><rect width="11" height="11" x="22" y="44" style="fill:#000"/><rect width="11" height="11" x="33" y="44" style="fill:#000"/><rect width="11" height="11" x="44" y="44" style="fill:#000"/><rect width="11" height="11" x="66" y="44" style="fill:#000"/><rect width="11" height="11" x="110" y="44" style="fill:#000"/><rect width="11" height="11" x="132" y="44" style="fill:#000"/><rect width="11" height="11" x="143" y="44" style="fill:#000"/><rect width="11" height="11" x="165" y="44" style="fill:#000"/><rect width="11" height="11" x="198" y="44" style="fill:#000"/><rect width="11" height="11" x="209" y="44" style="fill:#000"/><rect width="11" height="11" x="220" y="44" style="fill:#000"/><rect width="11" height="11" x="231" y="44" style="fill:#000"/><rect width="11" height="11" x="242" y="44" style="fill:#000"/><rect width="11" height="11" x="253" y="44" style="fill:#000"/><rect width="11" height="11" x="308" y="44" style="fill:#000"/><rect width="11" height="11" x="330" y="44" style="fill:#000"/><rect width="11" height="11" x="352" y="44" style="fill:#000"/><rect width="11" height="11" x="363" y="44" style="fill:#000"/><rect width="11" height="11" x="374" y="44" style="fill:#000"/><rect width="11" height="11" x="396" y="44" style="fill:#000"/>
<rect width="11" height="11" x="0" y="55" style="fill:#000"/><rect width="11" height="11" x="66" y="55" style="fill:#000"/><rect width="11" height="11" x="88" y="55" style="fill:#000"/><rect width="11" height="11" x="99" y="55" style="fill:#000"/><rect width="11" height="11" x="110" y="55" style="fill:#000"/><rect width="11" height="11" x="121" y="55" style="fill:#000"/><rect width="11" height="11" x="143" y="55" style="fill:#000"/><rect width="11" height="11" x="198" y="55" style="fill:#000"/><rect width="11" height="11" x="209" y="55" style="fill:#000"/><rect width="11" height="11" x="231" y="55" style="fill:#000"/><rect width="11" height="11" x="242" y="55" style="fill:#000"/><rect width="11" height="11" x="264" y="55" style="fill:#000"/><rect width="11" height="11" x="330" y="55" style="fill:#000"/><rect width="11" height="11" x="396" y="55" style="fill:#000"/>
<rect width="11" height="11" x="0" y="66" style="fill:#000"/><rect width="11" height="11" x="11" y="66" style="fill:#000"/><rect width="11" height="11" x="22" y="66" style="fill:#000"/><rect width="11" height="11" x="33" y="66" style="fill:#000"/><rect width="11" height="11" x="44" y="66" style="fill:#000"/><rect width="11" height="11" x="55" y="66" style="fill:#000"/><rect width="11" height="11" x="66" y="66" style="fill:#000"/><rect width="11" height="11" x="88" y="66" style="fill:#000"/><rect width="11" height="11" x="110" y="66" style="fill:#000"/><rect width="11" height="11" x="132" y="66" style="fill:#000"/><rect width="11" height="11" x="154" y="66" style="fill:#000"/><rect width="11" height="11" x="176" y="66" style="fill:#000"/><rect width="11" height="11" x="198" y="66" style="fill:#000"/><rect width="11" height="11" x="220" y="66" style="fill:#000"/><rect width="11" height="11" x="242" y="66" style="fill:#000"/><rect width="11" height="11" x="264" y="66" style="fill:#000"/><rect width="11" height="11" x="286" y="66" style="fill:#000"/><rect width="11" height="11" x="308" y="66" style="fill:#000"/><rect width="11" height="11" x="330" y="66" style="fill:#000"/><rect width="11" height="11" x="341" y="66" style="fill:#000"/><rect width="11" height="11" x="352" y="66" style="fill:#000"/><rect width="11" height="11" x="363" y="66" style="fill:#000"/><rect width="11" height="11" x="374" y="66" style="fill:#000"/><rect width="11" height="11" x="385" y="66" style="fill:#000"/><rect width="11" height="11" x="396" y="66" style="fill:#000"/>
<rect width="11" height="11" x="88" y="77" style="fill:#000"/><rect width="11" height="11" x="99" y="77" style="fill:#000"/><rect width="11" height="11" x="110" y="77" style="fill:#000"/><rect width="11" height="11" x="132" y="77" style="fill:#000"/><rect width="11" height="11" x="143" y="77" style="fill:#000"/><rect width="11" height="11" x="154" y="77" style="fill:#000"/><rect width="11" height="11" x="176" y="77" style="fill:#000"/><rect width="11" height="11" x="187" y="77" style="fill:#000"/><rect width="11" height="11" x="198" y="77" style="fill:#000"/><rect width="11" height="11" x="220" y="77" style="fill:#000"/><rect width="11" height="11" x="275" y="77" style="fill:#000"/><rect width="11" height="11" x="308" y="77" style="fill:#000"/>
<rect width="11" height="11" x="44" y="88" style="fill:#000"/><rect width="11" height="11" x="55" y="88" style="fill:#000"/><rect width="11" height="11" x="66" y="88" style="fill:#000"/><rect width="11" height="11" x="77" y="88" style="fill:#000"/><rect width="11" height="11" x="121" y="88" style="fill:#000"/><rect width="11" height="11" x="132" y="88" style="fill:#000"/><rect width="11" height="11" x="143" y="88" style="fill:#000"/><rect width="11" height="11" x="165" y="88" style="fill:#000"/><rect width="11" height="11" x="176" y="88" style="fill:#000"/><rect width="11" height="11" x="187" y="88" style="fill:#000"/><rect width="11" height="11" x="198" y="88" style="fill:#000"/><rect width="11" height="11" x="231" y="88" style="fill:#000"/><rect width="11" height="11" x="242" y="88" style="fill:#000"/><rect width="11" height="11" x="264" y="88" style="fill:#000"/><rect width="11" height="11" x="275" y="88" style="fill:#000"/><rect width="11" height="11" x="297" y="88" style="fill:#000"/><rect width="11" height="11" x="330" y="88" style="fill:#000"/><rect width="11" height="11" x="341" y="88" style="fill:#000"/><rect width="11" height="11" x="385" y="88" style="fill:#000"/>
<rect width="11" height="11" x="77" y="99" style="fill:#000"/><rect width="11" height="11" x="88" y="99" style="fill:#000"/><rect width="11" height="11" x="143" y="99" style="fill:#000"/><rect width="11" height="11" x="154" y="99" style="fill:#000"/><rect width="11" height="11" x="165" y="99" style="fill:#000"/><rect width="11" height="11" x="198" y="99" style="fill:#000"/><rect width="11" height="11" x="253" y="99" style="fill:#000"/><rect width="11" height="11" x="275" y="99" style="fill:#000"/><rect width="11" height="11" x="286" y="99" style="fill:#000"/><rect width="11" height="11" x="352" y="99" style="fill:#000"/><rect width="11" height="11" x="374" y="99" style="fill:#000"/>
<rect width="11" height="11" x="0" y="110" style="fill:#000"/><rect width="11" height="11" x="22" y="110" style="fill:#000"/><rect width="11" height="11" x="55" y="110" style="fill:#000"/><rect width="11" height="11" x="66" y="110" style="fill:#000"/><rect width="11" height="11" x="88" y="110" style="fill:#000"/><rect width="11" height="11" x="99" y="110" style="fill:#000"/><rect width="11" height="11" x="143" y="110" style="fill:#000"/><rect width="11" height="11" x="176" y="110" style="fill:#000"/><rect width="11" height="11" x="187" y="110" style="fill:#000"/><rect width="11" height="11" x="198" y="110" style="fill:#000"/><rect width="11" height="11" x="220" y="110" style="fill:#000"/><rect width="11" height="11" x="231" y="110" style="fill:#000"/><rect width="11" height="11" x="242" y="110" style="fill:#000"/><rect width="11" height="11" x="264" y="110" style="fill:#000"/><rect width="11" height="11" x="275" y="110" style="fill:#000"/><rect width="11" height="11" x="286" y="110" style="fill:#000"/><rect width="11" height="11" x="297" y="110" style="fill:#000"/><rect width="11" height="11" x="319" y="110" style="fill:#000"/><rect width="11" height="11" x="330" y="110" style="fill:#000"/><rect width="11" height="11" x="341" y="110" style="fill:#000"/><rect width="11" height="11" x="352" y="110" style="fill:#000"/><rect width="11" height="11" x="363" y="110" style="fill:#000"/><rect width="11" height="11" x="374" y="110" style="fill:#000"/>
<rect width="11" height="11" x="33" y="121" style="fill:#000"/><rect width="11" height="11" x="44" y="121" style="fill:#000"/><rect width="11" height="11" x="55" y="121" style="fill:#000"/><rect width="11" height="11" x="88" y="121" style="fill:#000"/><rect width="11" height="11" x="99" y="121" style="fill:#000"/><rect width="11" height="11" x="121" y="121" style="fill:#000"/><rect width="11" height="11" x="143" y="121" style="fill:#000"/><rect width="11" height="11" x="154" y="121" style="fill:#000"/><rect width="11" height="11" x="187" y="121" style="fill:#000"/><rect width="11" height="11" x="198" y="121" style="fill:#000"/><rect width="11" height="11" x="209" y="121" style="fill:#000"/><rect width="11" height="11" x="231" y="121" style="fill:#000"/><rect width="11" height="11" x="242" y="121" style="fill:#000"/><rect width="11" height="11" x="286" y="121" style="fill:#000"/><rect width="11" height="11" x="308" y="121" style="fill:#000"/><rect width="11" height="11" x="374" y="121" style="fill:#000"/><rect width="11" height="11" x="385" y="121" style="fill:#000"/><rect width="11" height="11" x="396" y="121" style="fill:#000"/>
<rect width="11" height="11" x="22" y="132" style="fill:#000"/><rect width="11" height="11" x="33" y="132" style="fill:#000"/><rect width="11" height="11" x="44" y="132" style="fill:#000"/><rect width="11" height="11" x="55" y="132" style="fill:#000"/><rect width="11" height="11" x="66" y="132" style="fill:#000"/><rect width="11" height="11" x="88" y="132" style="fill:#000"/><rect width="11" height="11" x="110" y="132" style="fill:#000"/><rect width="11" height="11" x="132" y="132" style="fill:#000"/><rect width="11" height="11" x="176" y="132" style="fill:#000"/><rect width="11" height="11" x="198" y="132" style="fill:#000"/><rect width="11" height="11" x="209" y="132" style="fill:#000"/><rect width="11" height="11" x="253" y="132" style="fill:#000"/><rect width="11" height="11" x="275" y="132" style="fill:#000"/><rect width="11" height="11" x="297" y="132" style="fill:#000"/><rect width="11" height="11" x="330" y="132" style="fill:#000"/><rect width="11" height="11" x="341" y="132" style="fill:#000"/><rect width="11" height="11" x="374" y="132" style="fill:#000"/>
<rect width="11" height="11" x="0" y="143" style="fill:#000"/><rect width="11" height="11" x="11" y="143" style="fill:#000"/><rect width="11" height="11" x="22" y="143" style="fill:#000"/><rect width="11" height="11" x="88" y="143" style="fill:#000"/><rect width="11" height="11" x="99" y="143" style="fill:#000"/><rect width="11" height="11" x="121" y="143" style="fill:#000"/><rect width="11" height="11" x="132" y="143" style="fill:#000"/><rect width="11" height="11" x="165" y="143" style="fill:#000"/><rect width="11" height="11" x="198" y="143" style="fill:#000"/><rect width="11" height="11" x="209" y="143" style="fill:#000"/><rect width="11" height="11" x="220" y="143" style="fill:#000"/><rect width="11" height="11" x="231" y="143" style="fill:#000"/><rect width="11" height="11" x="253" y="143" style="fill:#000"/><rect width="11" height="11" x="275" y="143" style="fill:#000"/><rect width="11" height="11" x="297" y="143" style="fill:#000"/><rect width="11" height="11" x="308" y="143" style="fill:#000"/><rect width="11" height="11" x="319" y="143" style="fill:#000"/><rect width="11" height="11" x="352" y="143" style="fill:#000"/><rect width="11" height="11" x="363" y="143" style="fill:#000"/><rect width="11" height="11" x="385" y="143" style="fill:#000"/><rect width="11" height="11" x="396" y="143" style="fill:#000"/>
<rect width="11" height="11" x="11" y="154" style="fill:#000"/><rect width="11" height="11" x="22" y="154" style="fill:#000"/><rect width="11" height="11" x="33" y="154" style="fill:#000"/><rect width="11" height="11" x="66" y="154" style="fill:#000"/><rect width="11" height="11" x="88" y="154" style="fill:#000"/><rect width="11" height="11" x="132" y="154" style="fill:#000"/><rect width="11" height="11" x="165" y="154" style="fill:#000"/><rect width="11" height="11" x="209" y="154" style="fill:#000"/><rect width="11" height="11" x="220" y="154" style="fill:#000"/><rect width="11" height="11" x="242" y="154" style="fill:#000"/><rect width="11" height="11" x="253" y="154" style="fill:#000"/><rect width="11" height="11" x="264" y="154" style="fill:#000"/><rect width="11" height="11" x="275" y="154" style="fill:#000"/><rect width="11" height="11" x="297" y="154" style="fill:#000"/><rect width="11" height="11" x="319" y="154" style="fill:#000"/><rect width="11" height="11" x="341" y="154" style="fill:#000"/><rect width="11" height="11" x="352" y="154" style="fill:#000"/>
<rect width="11" height="11" x="0" y="165" style="fill:#000"/><rect width="11" height="11" x="33" y="165" style="fill:#000"/><rect width="11" height="11" x="44" y="165" style="fill:#000"/><rect width="11" height="11" x="55" y="165" style="fill:#000"/><rect width="11" height="11" x="77" y="165" style="fill:#000"/><rect width="11" height="11" x="88" y="165" style="fill:#000"/><rect width="11" height="11" x="110" y="165" style="fill:#000"/><rect width="11" height="11" x="143" y="165" style="fill:#000"/><rect width="11" height="11" x="165" y="165" style="fill:#000"/><rect width="11" height="11" x="176" y="165" style="fill:#000"/><rect width="11" height="11" x="187" y="165" style="fill:#000"/><rect width="11" height="11" x="220" y="165" style="fill:#000"/><rect width="11" height="11" x="242" y="165" style="fill:#000"/><rect width="11" height="11" x="264" y="165" style="fill:#000"/><rect width="11" height="11" x="286" y="165" style="fill:#000"/><rect width="11" height="11" x="308" y="165" style="fill:#000"/><rect width="11" height="11" x="352" y="165" style="fill:#000"/><rect width="11" height="11" x="374" y="165" style="fill:#000"/><rect width="11" height="11" x="396" y="165" style="fill:#000"/>
<rect width="11" height="11" x="11" y="176" style="fill:#000"/><rect width="11" height="11" x="33" y="176" style="fill:#000"/><rect width="11" height="11" x="44" y="176" style="fill:#000"/><rect width="11" height="11" x="66" y="176" style="fill:#000"/><rect width="11" height="11" x="99" y="176" style="fill:#000"/><rect width="11" height="11" x="110" y="176" style="fill:#000"/><rect width="11" height="11" x="121" y="176" style="fill:#000"/><rect width="11" height="11" x="176" y="176" style="fill:#000"/><rect width="11" height="11" x="187" y="176" style="fill:#000"/><rect width="11" height="11" x="198" y="176" style="fill:#000"/><rect width="11" height="11" x="220" y="176" style="fill:#000"/><rect width="11" height="11" x="231" y="176" style="fill:#000"/><rect width="11" height="11" x="242" y="176" style="fill:#000"/><rect width="11" height="11" x="253" y="176" style="fill:#000"/><rect width="11" height="11" x="264" y="176" style="fill:#000"/><rect width="11" height="11" x="286" y="176" style="fill:#000"/><rect width="11" height="11" x="308" y="176" style="fill:#000"/><rect width="11" height="11" x="319" y="176" style="fill:#000"/><rect width="11" height="11" x="330" y="176" style="fill:#000"/><rect width="11" height="11" x="341" y="176" style="fill:#000"/>
<rect width="11" height="11" x="11" y="187" style="fill:#000"/><rect width="11" height="11" x="22" y="187" style="fill:#000"/><rect width="11" height="11" x="33" y="187" style="fill:#000"/><rect width="11" height="11" x="55" y="187" style="fill:#000"/><rect width="11" height="11" x="88" y="187" style="fill:#000"/><rect width="11" height="11" x="110" y="187" style="fill:#000"/><rect width="11" height="11" x="176" y="187" style="fill:#000"/><rect width="11" height="11" x="187" y="187" style="fill:#000"/><rect width="11" height="11" x="242" y="187" style="fill:#000"/><rect width="11" height="11" x="253" y="187" style="fill:#000"/><rect width="11" height="11" x="275" y="187" style="fill:#000"/><rect width="11" height="11" x="297" y="187" style="fill:#000"/><rect width="11" height="11" x="308" y="187" style="fill:#000"/><rect width="11" height="11" x="352" y="187" style="fill:#000"/><rect width="11" height="11" x="385" y="187" style="fill:#000"/><rect width="11" height="11" x="396" y="187" style="fill:#000"/>
<rect width="11" height="11" x="0" y="198" style="fill:#000"/><rect width="11" height="11" x="22" y="198" style="fill:#000"/><rect width="11" height="11" x="55" y="198" style="fill:#000"/><rect width="11" height="11" x="66" y="198" style="fill:#000"/><rect width="11" height="11" x="77" y="198" style="fill:#000"/><rect width="11" height="11" x="99" y="198" style="fill:#000"/><rect width="11" height="11" x="110" y="198" style="fill:#000"/><rect width="11" height="11" x="132" y="198" style="fill:#000"/><rect width="11" height="11" x="143" y="198" style="fill:#000"/><rect width="11" height="11" x="165" y="198" style="fill:#000"/><rect width="11" height="11" x="209" y="198" style="fill:#000"/><rect width="11" height="11" x="220" y="198" style="fill:#000"/><rect width="11" height="11" x="231" y="198" style="fill:#000"/><rect width="11" height="11" x="242" y="198" style="fill:#000"/><rect width="11" height="11" x="253" y="198" style="fill:#000"/><rect width="11" height="11" x="286" y="198" style="fill:#000"/><rect width="11" height="11" x="297" y="198" style="fill:#000"/><rect width="11" height="11" x="341" y="198" style="fill:#000"/>
<rect width="11" height="11" x="11" y="209" style="fill:#000"/><rect width="11" height="11" x="33" y="209" style="fill:#000"/><rect width="11" height="11" x="44" y="209" style="fill:#000"/><rect width="11" height="11" x="55" y="209" style="fill:#000"/><rect width="11" height="11" x="88" y="209" style="fill:#000"/><rect width="11" height="11" x="154" y="209" style="fill:#000"/><rect width="11" height="11" x="187" y="209" style="fill:#000"/><rect width="11" height="11" x="209" y="209" style="fill:#000"/><rect width="11" height="11" x="286" y="209" style="fill:#000"/><rect width="11" height="11" x="297" y="209" style="fill:#000"/><rect width="11" height="11" x="341" y="209" style="fill:#000"/><rect width="11" height="11" x="352" y="209" style="fill:#000"/><rect width="11" height="11" x="363" y="209" style="fill:#000"/><rect width="11" height="11" x="374" y="209" style="fill:#000"/><rect width="11" height="11" x="385" y="209" style="fill:#000"/>
<rect width="11" height="11" x="33" y="220" style="fill:#000"/><rect width="11" height="11" x="44" y="220" style="fill:#000"/><rect width="11" height="11" x="55" y="220" style="fill:#000"/><rect width="11" height="11" x="66" y="220" style="fill:#000"/><rect width="11" height="11" x="132" y="220" style="fill:#000"/><rect width="11" height="11" x="143" y="220" style="fill:#000"/><rect width="11" height="11" x="187" y="220" style="fill:#000"/><rect width="11" height="11" x="209" y="220" style="fill:#000"/><rect width="11" height="11" x="231" y="220" style="fill:#000"/><rect width="11" height="11" x="253" y="220" style="fill:#000"/><rect width="11" height="11" x="264" y="220" style="fill:#000"/><rect width="11" height="11" x="308" y="220" style="fill:#000"/><rect width="11" height="11" x="319" y="220" style="fill:#000"/><rect width="11" height="11" x="330" y="220" style="fill:#000"/><rect width="11" height="11" x="341" y="220" style="fill:#000"/><rect width="11" height="11" x="352" y="220" style="fill:#000"/><rect width="11" height="11" x="363" y="220" style="fill:#000"/><rect width="11" height="11" x="374" y="220" style="fill:#000"/>
<rect width="11" height="11" x="11" y="231" style="fill:#000"/><rect width="11" height="11" x="22" y="231" style="fill:#000"/><rect width="11" height="11" x="33" y="231" style="fill:#000"/><rect width="11" height="11" x="55" y="231" style="fill:#000"/><rect width="11" height="11" x="88" y="231" style="fill:#000"/><rect width="11" height="11" x="110" y="231" style="fill:#000"/><rect width="11" height="11" x="121" y="231" style="fill:#000"/><rect width="11" height="11" x="132" y="231" style="fill:#000"/><rect width="11" height="11" x="165" y="231" style="fill:#000"/><rect width="11" height="11" x="176" y="231" style="fill:#000"/><rect width="11" height="11" x="187" y="231" style="fill:#000"/><rect width="11" height="11" x="198" y="231" style="fill:#000"/><rect width="11" height="11" x="209" y="231" style="fill:#000"/><rect width="11" height="11" x="242" y="231" style="fill:#000"/><rect width="11" height="11" x="264" y="231" style="fill:#000"/><rect width="11" height="11" x="275" y="231" style="fill:#000"/><rect width="11" height="11" x="286" y="231" style="fill:#000"/><rect width="11" height="11" x="297" y="231" style="fill:#000"/><rect width="11" height="11" x="319" y="231" style="fill:#000"/><rect width="11" height="11" x="352" y="231" style="fill:#000"/><rect width="11" height="11" x="363" y="231" style="fill:#000"/><rect width="11" height="11" x="374" y="231" style="fill:#000"/>
<rect width="11" height="11" x="0" y="242" style="fill:#000"/><rect width="11" height="11" x="11" y="242" style="fill:#000"/><rect width="11" height="11" x="22" y="242" style="fill:#000"/><rect width="11" height="11" x="33" y="242" style="fill:#000"/><rect width="11" height="11" x="44" y="242" style="fill:#000"/><rect width="11" height="11" x="55" y="242" style="fill:#000"/><rect width="11" height="11" x="66" y="242" style="fill:#000"/><rect width="11" height="11" x="88" y="242" style="fill:#000"/><rect width="11" height="11" x="121" y="242" style="fill:#000"/><rect width="11" height="11" x="132" y="242" style="fill:#000"/><rect width="11" height="11" x="165" y="242" style="fill:#000"/><rect width="11" height="11" x="187" y="242" style="fill:#000"/><rect width="11" height="11" x="220" y="242" style="fill:#000"/><rect width="11" height="11" x="253" y="242" style="fill:#000"/><rect width="11" height="11" x="297" y="242" style="fill:#000"/><rect width="11" height="11" x="308" y="242" style="fill:#000"/><rect width="11" height="11" x="352" y="242" style="fill:#000"/><rect width="11" height="11" x="374" y="242" style="fill:#000"/>
<rect width="11" height="11" x="0" y="253" style="fill:#000"/><rect width="11" height="11" x="11" y="253" style="fill:#000"/><rect width="11" height="11" x="22" y="253" style="fill:#000"/><rect width="11" height="11" x="33" y="253" style="fill:#000"/><rect width="11" height="11" x="55" y="253" style="fill:#000"/><rect width="11" height="11" x="77" y="253" style="fill:#000"/><rect width="11" height="11" x="99" y="253" style="fill:#000"/><rect width="11" height="11" x="121" y="253" style="fill:#000"/><rect width="11" height="11" x="154" y="253" style="fill:#000"/><rect width="11" height="11" x="165" y="253" style="fill:#000"/><rect width="11" height="11" x="187" y="253" style="fill:#000"/><rect width="11" height="11" x="220" y="253" style="fill:#000"/><rect width="11" height="11" x="253" y="253" style="fill:#000"/><rect width="11" height="11" x="264" y="253" style="fill:#000"/><rect width="11" height="11" x="286" y="253" style="fill:#000"/><rect width="11" height="11" x="297" y="253" style="fill:#000"/><rect width="11" height="11" x="341" y="253" style="fill:#000"/><rect width="11" height="11" x="374" y="253" style="fill:#000"/><rect width="11" height="11" x="385" y="253" style="fill:#000"/>
<rect width="11" height="11" x="0" y="264" style="fill:#000"/><rect width="11" height="11" x="33" y="264" style="fill:#000"/><rect width="11" height="11" x="44" y="264" style="fill:#000"/><rect width="11" height="11" x="55" y="264" style="fill:#000"/><rect width="11" height="11" x="66" y="264" style="fill:#000"/><rect width="11" height="11" x="77" y="264" style="fill:#000"/><rect width="11" height="11" x="132" y="264" style="fill:#000"/><rect width="11" height="11" x="165" y="264" style="fill:#000"/><rect width="11" height="11" x="176" y="264" style="fill:#000"/><rect width="11" height="11" x="187" y="264" style="fill:#000"/><rect width="11" height="11" x="209" y="264" style="fill:#000"/><rect width="11" height="11" x="220" y="264" style="fill:#000"/><rect width="11" height="11" x="242" y="264" style="fill:#000"/><rect width="11" height="11" x="275" y="264" style="fill:#000"/><rect width="11" height="11" x="286" y="264" style="fill:#000"/><rect width="11" height="11" x="308" y="264" style="fill:#000"/><rect width="11" height="11" x="330" y="264" style="fill:#000"/><rect width="11" height="11" x="374" y="264" style="fill:#000"/><rect width="11" height="11" x="385" y="264" style="fill:#000"/><rect width="11" height="11" x="396" y="264" style="fill:#000"/>
<rect width="11" height="11" x="0" y="275" style="fill:#000"/><rect width="11" height="11" x="11" y="275" style="fill:#000"/><rect width="11" height="11" x="44" y="275" style="fill:#000"/><rect width="11" height="11" x="77" y="275" style="fill:#000"/><rect width="11" height="11" x="110" y="275" style="fill:#000"/><rect width="11" height="11" x="132" y="275" style="fill:#000"/><rect width="11" height="11" x="165" y="275" style="fill:#000"/><rect width="11" height="11" x="198" y="275" style="fill:#000"/><rect width="11" height="11" x="209" y="275" style="fill:#000"/><rect width="11" height="11" x="220" y="275" style="fill:#000"/><rect width="11" height="11" x="264" y="275" style="fill:#000"/><rect width="11" height="11" x="275" y="275" style="fill:#000"/><rect width="11" height="11" x="297" y="275" style="fill:#000"/><rect width="11" height="11" x="319" y="275" style="fill:#000"/><rect width="11" height="11" x="352" y="275" style="fill:#000"/><rect width="11" height="11" x="363" y="275" style="fill:#000"/><rect width="11" height="11" x="374" y="275" style="fill:#000"/><rect width="11" height="11" x="385" y="275" style="fill:#000"/>
<rect width="11" height="11" x="33" y="286" style="fill:#000"/><rect width="11" height="11" x="55" y="286" style="fill:#000"/><rect width="11" height="11" x="66" y="286" style="fill:#000"/><rect width="11" height="11" x="88" y="286" style="fill:#000"/><rect width="11" height="11" x="121" y="286" style="fill:#000"/><rect width="11" height="11" x="132" y="286" style="fill:#000"/><rect width="11" height="11" x="143" y="286" style="fill:#000"/><rect width="11" height="11" x="154" y="286" style="fill:#000"/><rect width="11" height="11" x="165" y="286" style="fill:#000"/><rect width="11" height="11" x="176" y="286" style="fill:#000"/><rect width="11" height="11" x="198" y="286" style="fill:#000"/><rect width="11" height="11" x="220" y="286" style="fill:#000"/><rect width="11" height="11" x="231" y="286" style="fill:#000"/><rect width="11" height="11" x="253" y="286" style="fill:#000"/><rect width="11" height="11" x="264" y="286" style="fill:#000"/><rect width="11" height="11" x="297" y="286" style="fill:#000"/><rect width="11" height="11" x="319" y="286" style="fill:#000"/><rect width="11" height="11" x="330" y="286" style="fill:#000"/><rect width="11" height="11" x="341" y="286" style="fill:#000"/><rect width="11" height="11" x="385" y="286" style="fill:#000"/>
<rect width="11" height="11" x="44" y="297" style="fill:#000"/><rect width="11" height="11" x="77" y="297" style="fill:#000"/><rect width="11" height="11" x="88" y="297" style="fill:#000"/><rect width="11" height="11" x="121" y="297" style="fill:#000"/><rect width="11" height="11" x="132" y="297" style="fill:#000"/><rect width="11" height="11" x="154" y="297" style="fill:#000"/><rect width="11" height="11" x="187" y="297" style="fill:#000"/><rect width="11" height="11" x="209" y="297" style="fill:#000"/><rect width="11" height="11" x="220" y="297" style="fill:#000"/><rect width="11" height="11" x="242" y="297" style="fill:#000"/><rect width="11" height="11" x="253" y="297" style="fill:#000"/><rect width="11" height="11" x="308" y="297" style="fill:#000"/><rect width="11" height="11" x="319" y="297" style="fill:#000"/><rect width="11" height="11" x="330" y="297" style="fill:#000"/><rect width="11" height="11" x="341" y="297" style="fill:#000"/><rect width="11" height="11" x="374" y="297" style="fill:#000"/><rect width="11" height="11" x="385" y="297" style="fill:#000"/>
<rect width="11" height="11" x="0" y="308" style="fill:#000"/><rect width="11" height="11" x="11" y="308" style="fill:#000"/><rect width="11" height="11" x="22" y="308" style="fill:#000"/><rect width="11" height="11" x="44" y="308" style="fill:#000"/><rect width="11" height="11" x="66" y="308" style="fill:#000"/><rect width="11" height="11" x="99" y="308" style="fill:#000"/><rect width="11" height="11" x="110" y="308" style="fill:#000"/><rect width="11" height="11" x="165" y="308" style="fill:#000"/><rect width="11" height="11" x="176" y="308" style="fill:#000"/><rect width="11" height="11" x="198" y="308" style="fill:#000"/><rect width="11" height="11" x="275" y="308" style="fill:#000"/><rect width="11" height="11" x="297" y="308" style="fill:#000"/><rect width="11" height="11" x="308" y="308" style="fill:#000"/><rect width="11" height="11" x="319" y="308" style="fill:#000"/><rect width="11" height="11" x="330" y="308" style="fill:#000"/><rect width="11" height="11" x="341" y="308" style="fill:#000"/><rect width="11" height="11" x="352" y="308" style="fill:#000"/><rect width="11" height="11" x="363" y="308" style="fill:#000"/><rect width="11" height="11" x="374" y="308" style="fill:#000"/><rect width="11" height="11" x="396" y="308" style="fill:#000"/>
<rect width="11" height="11" x="88" y="319" style="fill:#000"/><rect width="11" height="11" x="110" y="319" style="fill:#000"/><rect width="11" height="11" x="121" y="319" style="fill:#000"/><rect width="11" height="11" x="143" y="319" style="fill:#000"/><rect width="11" height="11" x="154" y="319" style="fill:#000"/><rect width="11" height="11" x="165" y="319" style="fill:#000"/><rect width="11" height="11" x="176" y="319" style="fill:#000"/><rect width="11" height="11" x="187" y="319" style="fill:#000"/><rect width="11" height="11" x="209" y="319" style="fill:#000"/><rect width="11" height="11" x="231" y="319" style="fill:#000"/><rect width="11" height="11" x="242" y="319" style="fill:#000"/><rect width="11" height="11" x="253" y="319" style="fill:#000"/><rect width="11" height="11" x="286" y="319" style="fill:#000"/><rect width="11" height="11" x="297" y="319" style="fill:#000"/><rect width="11" height="11" x="308" y="319" style="fill:#000"/><rect width="11" height="11" x="352" y="319" style="fill:#000"/><rect width="11" height="11" x="374" y="319" style="fill:#000"/><rect width="11" height="11" x="385" y="319" style="fill:#000"/>
<rect width="11" height="11" x="0" y="330" style="fill:#000"/><rect width="11" height="11" x="11" y="330" style="fill:#000"/><rect width="11" height="11" x="22" y="330" style="fill:#000"/><rect width="11" height="11" x="33" y="330" style="fill:#000"/><rect width="11" height="11" x="44" y="330" style="fill:#000"/><rect width="11" height="11" x="55" y="330" style="fill:#000"/><rect width="11" height="11" x="66" y="330" style="fill:#000"/><rect width="11" height="11" x="88" y="330" style="fill:#000"/><rect width="11" height="11" x="110" y="330" style="fill:#000"/><rect width="11" height="11" x="121" y="330" style="fill:#000"/><rect width="11" height="11" x="132" y="330" style="fill:#000"/><rect width="11" height="11" x="154" y="330" style="fill:#000"/><rect width="11" height="11" x="165" y="330" style="fill:#000"/><rect width="11" height="11" x="176" y="330" style="fill:#000"/><rect width="11" height="11" x="198" y="330" style="fill:#000"/><rect width="11" height="11" x="209" y="330" style="fill:#000"/><rect width="11" height="11" x="242" y="330" style="fill:#000"/><rect width="11" height="11" x="253" y="330" style="fill:#000"/><rect width="11" height="11" x="264" y="330" style="fill:#000"/><rect width="11" height="11" x="275" y="330" style="fill:#000"/><rect width="11" height="11" x="308" y="330" style="fill:#000"/><rect width="11" height="11" x="330" y="330" style="fill:#000"/><rect width="11" height="11" x="352" y="330" style="fill:#000"/><rect width="11" height="11" x="374" y="330" style="fill:#000"/><rect width="11" height="11" x="385" y="330" style="fill:#000"/>
<rect width="11" height="11" x="0" y="341" style="fill:#000"/><rect width="11" height="11" x="66" y="341" style="fill:#000"/><rect width="11" height="11" x="88" y="341" style="fill:#000"/><rect width="11" height="11" x="99" y="341" style="fill:#000"/><rect width="11" height="11" x="121" y="341" style="fill:#000"/><rect width="11" height="11" x="154" y="341" style="fill:#000"/><rect width="11" height="11" x="165" y="341" style="fill:#000"/><rect width="11" height="11" x="176" y="341" style="fill:#000"/><rect width="11" height="11" x="220" y="341" style="fill:#000"/><rect width="11" height="11" x="231" y="341" style="fill:#000"/><rect width="11" height="11" x="242" y="341" style="fill:#000"/><rect width="11" height="11" x="286" y="341" style="fill:#000"/><rect width="11" height="11" x="308" y="341" style="fill:#000"/><rect width="11" height="11" x="352" y="341" style="fill:#000"/><rect width="11" height="11" x="374" y="341" style="fill:#000"/>
<rect width="11" height="11" x="0" y="352" style="fill:#000"/><rect width="11" height="11" x="22" y="352" style="fill:#000"/><rect width="11" height="11" x="33" y="352" style="fill:#000"/><rect width="11" height="11" x="44" y="352" style="fill:#000"/><rect width="11" height="11" x="66" y="352" style="fill:#000"/><rect width="11" height="11" x="88" y="352" style="fill:#000"/><rect width="11" height="11" x="121" y="352" style="fill:#000"/><rect width="11" height="11" x="143" y="352" style="fill:#000"/><rect width="11" height="11" x="176" y="352" style="fill:#000"/><rect width="11" height="11" x="187" y="352" style="fill:#000"/><rect width="11" height="11" x="198" y="352" style="fill:#000"/><rect width="11" height="11" x="209" y="352" style="fill:#000"/><rect width="11" height="11" x="231" y="352" style="fill:#000"/><rect width="11" height="11" x="264" y="352" style="fill:#000"/><rect width="11" height="11" x="275" y="352" style="fill:#000"/><rect width="11" height="11" x="308" y="352" style="fill:#000"/><rect width="11" height="11" x="319" y="352" style="fill:#000"/><rect width="11" height="11" x="330" y="352" style="fill:#000"/><rect width="11" height="11" x="341" y="352" style="fill:#000"/><rect width="11" height="11" x="352" y="352" style="fill:#000"/><rect width="11" height="11" x="396" y="352" style="fill:#000"/>
<rect width="11" height="11" x="0" y="363" style="fill:#000"/><rect width="11" height="11" x="22" y="363" style="fill:#000"/><rect width="11" height="11" x="33" y="363" style="fill:#000"/><rect width="11" height="11" x="44" y="363" style="fill:#000"/><rect width="11" height="11" x="66" y="363" style="fill:#000"/><rect width="11" height="11" x="99" y="363" style="fill:#000"/><rect width="11" height="11" x="121" y="363" style="fill:#000"/><rect width="11" height="11" x="132" y="363" style="fill:#000"/><rect width="11" height="11" x="154" y="363" style="fill:#000"/><rect width="11" height="11" x="165" y="363" style="fill:#000"/><rect width="11" height="11" x="176" y="363" style="fill:#000"/><rect width="11" height="11" x="187" y="363" style="fill:#000"/><rect width="11" height="11" x="209" y="363" style="fill:#000"/><rect width="11" height="11" x="220" y="363" style="fill:#000"/><rect width="11" height="11" x="231" y="363" style="fill:#000"/><rect width="11" height="11" x="275" y="363" style="fill:#000"/><rect width="11" height="11" x="308" y="363" style="fill:#000"/><rect width="11" height="11" x="319" y="363" style="fill:#000"/><rect width="11" height="11" x="330" y="363" style="fill:#000"/><rect width="11" height="11" x="341" y="363" style="fill:#000"/><rect width="11" height="11" x="374" y="363" style="fill:#000"/>
<rect width="11" height="11" x="0" y="374" style="fill:#000"/><rect width="11" height="11" x="22" y="374" style="fill:#000"/><rect width="11" height="11" x="33" y="374" style="fill:#000"/><rect width="11" height="11" x="44" y="374" style="fill:#000"/><rect width="11" height="11" x="66" y="374" style="fill:#000"/><rect width="11" height="11" x="99" y="374" style="fill:#000"/><rect width="11" height="11" x="110" y="374" style="fill:#000"/><rect width="11" height="11" x="143" y="374" style="fill:#000"/><rect width="11" height="11" x="165" y="374" style="fill:#000"/><rect width="11" height="11" x="198" y="374" style="fill:#000"/><rect width="11" height="11" x="286" y="374" style="fill:#000"/><rect width="11" height="11" x="297" y="374" style="fill:#000"/><rect width="11" height="11" x="308" y="374" style="fill:#000"/><rect width="11" height="11" x="341" y="374" style="fill:#000"/><rect width="11" height="11" x="363" y="374" style="fill:#000"/><rect width="11" height="11" x="385" y="374" style="fill:#000"/>
<rect width="11" height="11" x="0" y="385" style="fill:#000"/><rect width="11" height="11" x="66" y="385" style="fill:#000"/><rect width="11" height="11" x="99" y="385" style="fill:#000"/><rect width="11" height="11" x="165" y="385" style="fill:#000"/><rect width="11" height="11" x="187" y="385" style="fill:#000"/><rect width="11" height="11" x="198" y="385" style="fill:#000"/><rect width="11" height="11" x="242" y="385" style="fill:#000"/><rect width="11" height="11" x="264" y="385" style="fill:#000"/><rect width="11" height="11" x="286" y="385" style="fill:#000"/><rect width="11" height="11" x="297" y="385" style="fill:#000"/><rect width="11" height="11" x="319" y="385" style="fill:#000"/><rect width="11" height="11" x="330" y="385" style="fill:#000"/><rect width="11" height="11" x="341" y="385" style="fill:#000"/><rect width="11" height="11" x="374" y="385" style="fill:#000"/><rect width="11" height="11" x="385" y="385" style="fill:#000"/>
<rect width="11" height="11" x="0" y="396" style="fill:#000"/><rect width="11" height="11" x="11" y="396" style="fill:#000"/><rect width="11" height="11" x="22" y="396" style="fill:#000"/><rect width="11" height="11" x="33" y="396" style="fill:#000"/><rect width="11" height="11" x="44" y="396" style="fill:#000"/><rect width="11" height="11" x="55" y="396" style="fill:#000"/><rect width="11" height="11" x="66" y="396" style="fill:#000"/><rect width="11" height="11" x="99" y="396" style="fill:#000"/><rect width="11" height="11" x="110" y="396" style="fill:#000"/><rect width="11" height="11" x="132" y="396" style="fill:#000"/><rect width="11" height="11" x="143" y="396" style="fill:#000"/><rect width="11" height="11" x="154" y="396" style="fill:#000"/><rect width="11" height="11" x="187" y="396" style="fill:#000"/><rect width="11" height="11" x="198" y="396" style="fill:#000"/><rect width="11" height="11" x="231" y="396" style="fill:#000"/><rect width="11" height="11" x="253" y="396" style="fill:#000"/><rect width="11" height="11" x="297" y="396" style="fill:#000"/><rect width="11" height="11" x="319" y="396" style="fill:#000"/><rect width="11" height="11" x="341" y="396" style="fill:#000"/><rect width="11" height="11" x="352" y="396" style="fill:#000"/><rect width="11" height="11" x="374" y="396" style="fill:#000"/><rect width="11" height="11" x="385" y="396" style="fill:#000"/><rect width="11" height="11" x="396" y="396" style="fill:#000"/>
</svg>