<?xml version="1.0" encoding="UTF-8"?>
<svg version="1.1" viewBox="0 0 300 300" xmlns="http://www.w3.org/2000/svg">
 <g>
  <g transform="matrix(1.0071 0 0 1.0071 -3.6976 -1.5786)">
   <path d="m162.75 246.73c-0.62452-2.3815-1.9926-6.7959-2.3797-7.6783-0.27193-0.61991-1.1492-2.8562-1.9495-4.9696-1.6282-4.2997-1.7903-4.4699-4.2587-4.4696l-1.446 1.6e-4 -0.48636 2.486c-0.26746 1.3673-0.48632 3.0052-0.48632 3.6398 0 1.8787-1.8314 5.0913-2.51 4.4032-0.14477-0.14692-0.63716-2.4954-1.0942-5.2191-0.45704-2.7238-0.90688-5.1529-0.99968-5.3981-0.14397-0.38058-1.8217-0.88936-3.7224-1.1289-0.75096-0.0945-4.997 9.3532-5.9921 13.333-0.66447 2.6574-1.1194 3.0602-2.1635 1.9152-0.56715-0.62196-0.61047-0.95114-0.62438-4.7435-0.0159-4.0843-0.57631-8.0617-1.66-11.761-0.50168-1.7128-1.0024-2.1206-3.4979-2.8489-0.97621-0.2849-1.9756-0.60518-2.2209-0.71174-0.50143-0.21767-0.97061 0.74113-2.4406 4.9884-1.2219 3.5303-1.265 3.5935-2.3296 3.4141-2.2795-0.38414-2.1488-0.26095-2.1433-2.0215 2e-3 -0.88816 0.18808-2.8194 0.41189-4.2917 0.53913-3.5467 0.52861-4.2106-0.0695-4.3911-0.26751-0.0807-0.98658-0.39413-1.598-0.69635-0.61143-0.30228-1.3124-0.54924-1.5577-0.5488-1.2123 2e-3 -4.8795 5.032-7.5992 10.423-0.89388 1.7718-1.7366 3.1031-1.9645 3.1031-0.21941 0-0.57729-0.28529-0.79516-0.63401-0.3487-0.55806-0.31778-1.0896 0.25821-4.4379 0.782-4.5467 1.3073-10.671 1.0674-12.446-0.1538-1.1372-0.34601-1.4161-1.7356-2.5176-2.918-2.313-4.7799-3.4083-5.1972-3.0571-1.0238 0.86154-3.6919 4.4804-4.4309 6.01-0.89599 1.8545-1.6614 2.2666-2.9307 1.5778-0.79872-0.4334-0.62818-1.2821 1.2884-6.4115 0.82682-2.2128 1.5033-4.387 1.5033-4.8316 0-0.64682-0.39112-1.1598-1.9583-2.5686-1.9429-1.7464-1.9664-1.7578-2.9875-1.445-2.7908 0.85506-7.537 4.676-9.6233 7.7473-1.1674 1.7186-2.5037 2.8476-3.0971 2.6168-0.65602-0.25535-0.47951-0.85549 1.4086-4.7902 0.99351-2.0704 1.8064-3.8478 1.8064-3.9497 0-0.10179 0.63498-1.851 1.411-3.8869 1.8716-4.91 1.9495-7.1327 0.31659-9.0308-1.1677-1.3572-4.5232 2e-3 -7.6106 3.0842-1.116 1.114-1.7124 1.5192-2.0452 1.3896-0.72312-0.28133-0.29549-1.8938 0.82037-3.0934 1.1361-1.2214 3.2122-4.3559 4.0559-6.1234l0.61628-1.2912-1.6649-3.7807c-0.9157-2.0794-1.7518-4.066-1.8579-4.4147-0.2165-0.7113-0.66056-0.8045-1.3425-0.28177-0.25261 0.19364-1.0947 2.1209-1.871 4.2827-0.77638 2.1618-1.6633 4.3435-1.9711 4.8483-1.984 3.2549-7.8302 6.2642-13.148 6.7676-1.3874 0.13142-1.7778 0.0801-1.9024-0.2492-0.23988-0.63402 0.15778-1.0689 1.348-1.4736 0.85964-0.2923 1.2436-0.66348 1.8559-1.7942 1.1571-2.1367 1.0981-3.2425-0.50892-9.5446-1.5346-6.0182-3.9508-11.623-7.7118-17.891-3.8685-6.4461-11.149-15.33-13.636-16.639-1.5419-0.81156-3.6696-0.79453-5.0015 0.0401-0.78937 0.49466-1.1015 0.55714-1.5546 0.31121-0.31186-0.16934-0.56009-0.46167-0.55168-0.64994 0.02654-0.57982 3.8771-3.3584 6.5687-4.7393 3.0294-1.5542 5.7831-2.2958 8.6745-2.3361 3.457-0.048 4.4226 0.24067 7.575 2.2667 1.5801 1.0155 2.9355 1.9359 3.012 2.0454 0.07652 0.10957 1.327 1.0891 2.7791 2.177 1.4521 1.0879 3.8701 3.0106 5.3734 4.2727 3.0485 2.5594 4.0771 2.9654 5.6213 2.2187 0.51048-0.2468 1.1322-0.7645 1.3815-1.1503 0.62805-0.9719 2.101-5.0291 1.9621-5.4046-0.2064-0.55778-3.1724-2.3756-5.0377-3.0874-1.0078-0.38461-2.458-1.0208-3.2228-1.4137-2.5597-1.3151-1.0218-1.902 2.8732-1.0965 2.7135 0.56115 5.1372 0.62739 5.9916 0.16374 0.47759-0.2591 0.62015-0.58718 0.62015-1.427 0-1.02-0.12112-1.1811-1.8759-2.4921-1.0317-0.77087-2.6263-1.8761-3.5433-2.4561-4.5784-2.8956-5.3365-3.6901-4.9501-5.1882 0.1708-0.66192 1.5214-1.433 2.5102-1.433 0.36884 0 2.1085 0.64675 3.866 1.4372 2.1836 0.98215 3.7051 1.4841 4.805 1.5852l1.6096 0.14797 0.56783-2.2192c0.31228-1.2206 0.62763-2.4907 0.70076-2.8226 0.11127-0.50547-0.20268-0.79814-1.9348-1.8029-1.1372-0.6597-2.8415-1.4836-3.7873-1.8308-0.96025-0.35255-1.7196-0.80067-1.7196-1.0148 0-0.43806 0.94176-0.4555 5.2649-0.0975l2.7638 0.2289-1.3742-1.774c-1.7063-2.2026-6.5243-6.8925-8.9125-8.6754-1.584-1.1826-1.781-1.4338-1.7114-2.1818 0.07249-0.77928 0.1716-0.85212 1.2687-0.93238 1.0265-0.0752 1.6376 0.16426 4.4465 1.7414 3.6548 2.0521 6.9227 3.2767 8.7438 3.2767 1.8272 0 4.1006-0.75656 4.1006-1.3646 0-0.85686-1.5083-2.9467-3.1489-4.3631-1.7355-1.4982-2.066-2.4437-0.85421-2.4437 0.39673 0 1.0533 0.23692 1.459 0.52673 1.5671 1.119 5.879 3.0427 5.879 2.6228 0-0.12288-2.1857-2.6254-4.857-5.5609-3.0272-3.3266-4.8594-5.5598-4.8634-5.9277-0.0023-0.32469 0.24385-0.81982 0.54946-1.1003 0.30569-0.2805 0.55582-0.68054 0.55582-0.88899 0-0.54773 1.3202-0.46244 2.7046 0.17468 0.64688 0.29772 2.0324 1.234 3.0789 2.0806 4.3233 3.4975 8.5215 5.8705 9.6257 5.4409 0.52806-0.20541 1.266-1.9913 1.2586-3.0459-0.01592-2.1862-2.3615-6.2894-6.1742-10.798-1.1831-1.399-2.1523-2.8036-2.1538-3.1213-0.0023-0.67883 0.49262-1.2539 1.081-1.2539 0.22925 0 1.8612 1.4287 3.6267 3.175 4.807 4.7545 5.6759 5.3695 8.6561 6.1261 1.0978 0.27873 1.43 0.25188 2.3622-0.19178 1.3777-0.65564 1.4978-1.4408 0.54354-3.5559-0.39015-0.86482-0.70936-1.7011-0.70936-1.8584 0-0.15732-0.45344-1.1662-1.0076-2.2418-0.55418-1.0757-0.92197-2.0963-0.81731-2.268 0.44008-0.72199 1.2381-0.17602 3.0241 2.0687 1.0417 1.3093 2.4797 2.7739 3.1957 3.2547l1.3017 0.87422 0.48659-0.60927c0.6633-0.83055 0.61163-1.8335-0.20827-4.0419-0.38213-1.0294-0.69477-2.1362-0.69477-2.4596 0-0.32349-0.56278-2.2788-1.2506-4.3451-0.6878-2.0664-1.2506-4.2541-1.2506-4.8617 0-1.1024 2e-3 -1.1051 1.3042-1.286 0.71727-0.09962 1.3964-0.08521 1.5091 0.03205 0.11266 0.11726 1.1723 2.1154 2.3546 4.44 2.3082 4.5384 3.2635 6.1011 4.3642 7.1388 0.66319 0.62524 0.73244 0.63507 1.3912 0.19739 1.239-0.82312 2.2529-2.6852 2.1984-4.0372-0.0752-1.863-1.0823-5.866-2.734-10.868-1.3862-4.1976-1.4654-4.5748-1.0282-4.8999 0.2606-0.19365 0.63617-0.35224 0.83473-0.35224 0.48708 0 1.9545 2.0864 3.8646 5.4946 3.6096 6.4409 6.203 8.8759 9.4535 8.8759 0.84134 0 0.93513-0.08895 1.115-1.0566 0.10781-0.58115 0.051-2.0776-0.12644-3.3255-0.17744-1.2478-0.32272-2.6195-0.32272-3.0481 0-0.67797 0.0812-0.75391 0.62531-0.58435 0.3439 0.10711 0.6441 0.21075 0.66707 0.23024 0.0239 0.0187 0.37367 1.0498 0.77927 2.2896 0.4056 1.2398 1.1697 2.9199 1.698 3.7335 0.88952 1.37 1.0416 1.4793 2.0567 1.4793 1.046 0 1.1054-0.04836 1.2958-1.0566 0.11473-0.60682 1e-3 -2.676-0.26693-4.8606-0.90057-7.3422-0.61275-8.7619 1.5235-7.5154 0.89724 0.52358 1.0921 0.8306 1.4587 2.2988 0.23269 0.93194 1.0977 3.533 1.9222 5.7802 1.5975 4.354 1.6626 4.4322 3.4142 4.099l0.94493-0.17976-0.0104-1.7483c-0.0104-1.7038-0.57308-5.479-0.96568-6.468-0.16017-0.40333-0.0459-0.49311 0.62769-0.49311 0.77929 0 0.86762 0.12447 1.6495 2.3246 0.8623 2.4265 2.1219 4.7197 2.5924 4.7197 0.29102 0 0.92652-0.62949 1.7436-1.7272 0.74434-0.99994 1.5704-3.9705 2.027-7.2895 1.1786-8.5664 1.4376-9.6194 2.3088-9.3884 0.76902 0.2038 1.3113 2.7951 1.6995 8.1204 0.16947 2.3246 0.42496 4.7578 0.56782 5.407 0.62354 2.8337 2.0333 5.4413 2.9418 5.4413 0.54007 0 1.6211-2.087 2.6272-5.0719 0.49625-1.4723 0.92669-2.7121 0.95652-2.7552 0.0298-0.043 0.38254 0.04836 0.7838 0.203 0.64644 0.24921 0.69835 0.3646 0.45542 1.0124-0.4136 1.103-0.35426 7.3227 0.0734 7.6718 0.19099 0.15599 0.74138 0.36909 1.2229 0.47339 0.84877 0.18377 0.88877 0.14824 1.3076-1.165 0.23775-0.74504 0.69721-2.4324 1.0212-3.7497 0.32404-1.3173 0.82696-2.9434 1.1176-3.6137 0.45962-1.0597 0.61089-1.1923 1.1602-1.0171 0.34746 0.11085 0.96318 0.46904 1.3683 0.79595 0.64126 0.51749 0.75902 0.86786 0.90999 2.7077 0.40895 4.9842 0.78646 8.3952 0.96076 8.6812 0.10283 0.16881 0.74006 0.55804 1.4158 0.86479 2.0319 0.92237 2.8061 0.02939 3.4067-3.9288 0.37723-2.4861 0.88141-3.2411 1.6674-2.4967 0.30919 0.29283 0.38613 0.82934 0.29954 2.0885-0.0641 0.93196 0.0505 2.8974 0.25449 4.3676 0.34728 2.5025 0.41875 2.6902 1.119 2.9399 0.98592 0.35157 1.7278-0.06492 4.1274-2.3176 2.7779-2.6076 4.897-6.1191 6.1755-10.233 0.20402-0.65679 1.5646-0.94393 2.0656-0.43595 0.35124 0.35613 0.21888 1.0476-1.0425 5.4405-1.2562 4.3752-1.464 5.4558-1.5908 8.2729-0.13706 3.0446-0.11022 3.2728 0.44377 3.7776 0.58004 0.52844 0.60632 0.52844 1.6079 0 0.56002-0.29544 1.9952-1.4565 3.1892-2.5801 1.1941-1.1236 2.2274-2.0428 2.2964-2.0428 0.29716 0 0.99876 0.92202 0.99876 1.3126 0 0.23479-0.7007 1.1318-1.5571 1.9932-2.519 2.5337-3.2132 4.2153-2.1748 5.2682 0.59181 0.60003 0.87289 0.55761 1.2667-0.19126 0.71523-1.36 3.3868-4.4379 3.852-4.4379 0.85782 0 1.1568 0.66657 0.8731 1.9467-0.14186 0.6403-0.43265 1.4469-0.64614 1.7924-0.21358 0.34556-0.68949 1.6225-1.0578 2.8375-0.61039 2.0138-0.63311 2.2755-0.25687 2.9586 0.67031 1.2166 1.7986 1.1306 4.986-0.38009 1.5178-0.71935 2.8879-1.2275 3.0448-1.1292 0.6374 0.39941 0.20853 1.283-1.1739 2.4185-2.7773 2.2813-3.3594 3.4782-2.0396 4.1943 0.81234 0.44081 2.3393 0.12822 6.1482-1.2583 3.1698-1.154 6.0851-2.6392 8.7237-4.4444l2.0632-1.4116 0.64907 0.76506c0.79753 0.94009 0.93702 0.71037-3.2967 5.4287-2.9172 3.2512-5.7842 7.1257-5.7882 7.8223-8.2e-4 0.1632-0.17665 0.63707-0.39067 1.0528-0.64649 1.2564-0.8283 2.523-0.40157 2.7972 0.59517 0.38235 2.129 0.29476 5.4018-0.30839 3.5635-0.65674 3.7294-0.66772 3.7294-0.24654 0 0.47849-0.70841 0.96674-3.4738 2.3942-3.0824 1.5911-3.4746 1.934-3.4709 3.0342 2e-3 0.89886 0.61057 3.2001 1.0594 4.0132 0.13973 0.25323 1.114 1.1105 2.165 1.9054 1.8564 1.4039 2.3014 1.9558 5.8397 7.2433 0.6861 1.0253 1.4199 2.445 1.6306 3.1548 0.35496 1.1958 0.34206 1.3436-0.17504 2.0102-0.30702 0.39574-0.81625 0.71952-1.1316 0.71952-0.52229 0-0.55765 0.11647-0.39671 1.3073 0.0972 0.71904 0.17666 1.8486 0.17666 2.5101 0 1.0377 0.16549 1.3754 1.2055 2.4604 1.6253 1.6955 3.6077 4.7701 4.7987 7.4423 0.53932 1.21 1.3394 2.9608 1.7778 3.8907 0.9506 2.0158 2.0281 5.7004 2.4926 8.5236 0.33443 2.0326 0.34048 2.0429 1.2142 2.0439 1.2651 1e-3 2.647 0.96354 3.1442 2.1889 1.3402 3.3031 2.7485 5.9714 3.6528 6.9211 1.8918 1.9868 3.8654 2.5735 4.8032 1.4278 0.59035-0.72124 1.2558-0.45372 1.5862 0.6376 0.28786 0.95102 0.23534 1.1725-0.66516 2.8052-1.2941 2.3463-3.6002 4.473-5.4564 5.0319-1.9024 0.57285-7.3968 0.57802-9.2874 8e-3 -0.76731-0.23105-1.8217-0.7181-2.3432-1.0824l-0.94811-0.66238-10.975 11.322 1.3058 1.9419c0.71814 1.0681 1.9187 2.622 2.668 3.4532 1.2968 1.4387 1.5646 2.3552 0.6873 2.3526-0.49656-1e-3 -2.0033-0.95843-3.9807-2.5282-1.9745-1.5675-2.4584-1.8403-3.6811-2.0754-0.69682-0.13408-0.95499-0.0667-1.0875 0.28323-0.22527 0.59492 0.98559 4.1469 1.7928 5.2596 0.68415 0.94304 0.78804 1.6018 0.32648 2.0698-0.37737 0.38261-2.7146-0.47656-3.9995-1.4702-1.2323-0.95299-1.6213-0.87708-2.5139 0.49048-1.7035 2.61-0.91967 4.3595 4.6229 10.319 4.009 4.3106 4.3073 4.9493 2.4311 5.2044-1.0153 0.13811-1.2248 0.0633-1.8155-0.6485-0.9359-1.1277-4.3575-2.7973-8.3529-4.0757-3.3763-1.0804-3.4018-1.0838-4.4465-0.60071-1.0727 0.49604-1.9304 1.1874-3.0953 2.495l-0.65505 0.73524 1.4679 2.7527c0.80735 1.514 2.1339 3.7615 2.9478 4.9944 0.81391 1.2329 1.4798 2.4562 1.4798 2.7184 0 0.99166-1.839 1.9422-3.0214 1.5618-0.30821-0.0991-1.8032-1.7273-3.3223-3.6181-1.5191-1.8908-3.0902-3.746-3.4915-4.1228-0.69902-0.65648-0.76754-0.66682-1.6363-0.24681-0.49868 0.2412-1.9676 1.1323-3.2642 1.9804-1.2966 0.84812-2.7676 1.757-3.2689 2.0199-0.50127 0.26284-0.84778 0.58214-0.77009 0.70963 0.0778 0.12741 0.39368 1.8022 0.7021 3.7215 0.63981 3.9811 1.2922 6.257 2.4736 8.6301 1.0199 2.0486 1.3878 3.7355 0.81447 3.7355-0.21729 0-2.2537-1.9971-4.5255-4.4379-4.5862-4.9277-6.1645-6.38-7.6298-7.0207-0.9915-0.43351-3.7284-0.652-4.0524-0.32348-0.15859 0.16079 0.18329 2.9168 0.9973 8.0399 0.38489 2.4226 0.23163 3.229-0.73636 3.872-0.6 0.3986-0.85818 0.42418-1.5117 0.14958-1.2625-0.53021-1.5447-1.0365-3.0137-5.4068-1.931-5.7446-1.5922-5.3162-3.7838-4.7846l-1.8193 0.44135-0.94585 2.9742c-1.3034 4.0986-1.8417 6.9307-2.0291 10.675-0.11 2.2008-0.28226 3.3171-0.55403 3.5926-0.487 0.49375-0.8982 0.51293-1.0202 0.0475z" fill="#999" stroke-width=".27983"/>
   <path d="m131.85 157.51a6.4809 6.4809 0 0 0-6.4805 6.4805v18.242c-0.12682-0.15827-0.18826-0.35662-0.32226-0.50977a6.4809 6.4809 0 0 0-0.11524-0.12695c-2.4008-2.6009-5.5603-4.082-8.9355-4.9277-3.3981-0.86535-7.2846-1.1582-12.066-1.1582-6.1711 0-11.992 0.50984-17.459 1.5566a6.4809 6.4809 0 0 0-2.541 1.5059v-10.182a6.4809 6.4809 0 0 0-6.4805-6.4805h-15.199a6.4809 6.4809 0 0 0-5.9824 3.9883l-8.6895 20.867-9.9453-21.135a6.4809 6.4809 0 0 0-5.8633-3.7207h-14.721a6.4809 6.4809 0 0 0-6.4805 6.4805v2.4004a6.4809 6.4809 0 0 0 0.61524 2.7539l0.92773 1.9766a6.4809 6.4809 0 0 0-1.543 3.1894v44.721a6.4809 6.4809 0 0 0 6.4805 6.4805h14.721a6.4809 6.4809 0 0 0 4.9531-2.7949 6.4809 6.4809 0 0 0 5.0469 2.7949h10.4a6.4809 6.4809 0 0 0 5.0898-2.8848 6.4809 6.4809 0 0 0 4.9902 2.8848h15.199a6.4809 6.4809 0 0 0 5.748-4.7129c3.2269 3.7158 8.1842 5.2715 13.053 5.2715 2.1808 0 4.1847-0.18247 6.1426-0.65625 1.0491-0.22225 2.0651-0.56649 3.0371-1.0039a6.4809 6.4809 0 0 0 2.6602 1.1016h14.799a6.4809 6.4809 0 0 0 4.4805-1.8555 6.4809 6.4809 0 0 0 4.4805 1.8555h14.801a6.4809 6.4809 0 0 0 5-2.9082 6.4809 6.4809 0 0 0 5 2.9082h16.16a6.4809 6.4809 0 0 0 5.4805-3.1035c1.5328 0.94595 3.1863 1.7188 4.9316 2.2559a6.4809 6.4809 0 0 0 0.14062 0.041c3.7737 1.068 8.109 1.4453 13.367 1.4453 2.559 0 4.8276-0.0845 6.873-0.26172 3.9792-0.2319 7.2737-0.65711 10.188-1.5312a6.4809 6.4809 0 0 0 2.8086-1.9688 6.4809 6.4809 0 0 0 5.0898 3.123h14.801a6.4809 6.4809 0 0 0 6.4805-6.4805v-20.605a6.4809 6.4809 0 0 0 1.0273-0.33594c0.0203-0.0169 0.22217-0.17265 0.86719-0.3164 0.63479-0.1301 1.9815-0.18503 3.2539-0.24219 0.35663 1.6712 0.91129 3.3116 1.8281 4.8223 0.21394 0.379 0.53685 0.67852 0.78906 1.0332a6.4809 6.4809 0 0 0-2.0078 4.5234v10.24a6.4809 6.4809 0 0 0 5.4688 6.4004l4.5606 0.7207a6.4809 6.4809 0 0 0 0.0508 8e-3c3.5844 0.53766 7.5919 0.815 12.08 0.8711a6.4809 6.4809 0 0 0 1.8789-0.75781 6.4809 6.4809 0 0 0 1.7227 0.67578c5.143-0.127 9.8229-1.1656 13.629-3.998a6.4809 6.4809 0 0 0 0.10157-0.0781c4.7022-3.6466 6.4297-9.6193 6.4297-15.842-1e-5 -5.2882-0.44734-9.7698-3.6074-13.621a6.4809 6.4809 0 0 0 1.3672-3.1797v-10.238a6.4809 6.4809 0 0 0-5.332-6.377l-4-0.7207a6.4809 6.4809 0 0 0-0.14844-0.0254c-3.7736-0.58963-7.709-0.87891-11.801-0.87891a6.4809 6.4809 0 0 0-1.8691 0.77344 6.4809 6.4809 0 0 0-1.8809-0.68164c-4.812 0.28988-9.0241 1.2436-12.605 3.5957a6.4809 6.4809 0 0 0-5.3242-3.6875c-2.6719 0-5.1471 0.2703-7.5117 0.99219-0.79031 0.22895-1.5286 0.61204-2.2773 0.96289a6.4809 6.4809 0 0 0-3.1699-1.3144h-14.801a6.4809 6.4809 0 0 0-6.1777 5.748c-2.1066-2.4073-4.9308-4.0862-7.9551-4.9902-3.5235-1.0694-7.4969-1.3984-12.428-1.3984h-1.1191a6.4809 6.4809 0 0 0-1.9961 0.82813 6.4809 6.4809 0 0 0-1.8594-0.64844c-3.9805 0.30619-7.4676 1.0104-10.604 2.5703-0.54375 0.26575-0.98827 0.70524-1.5039 1.0293a6.4809 6.4809 0 0 0-5.4766-3.1387h-15.602a6.4809 6.4809 0 0 0-3.8379 2.2246v-14.385a6.4809 6.4809 0 0 0-6.4805-6.4805zm84.633 25.516 0.0664 0.0937c-0.0138-0.02-0.033-0.0348-0.0469-0.0547-9e-3 -0.0121-0.0109-0.027-0.0195-0.0391zm-87.785 6.6406 0.0293 0.16797c-4e-3 -0.0267-0.019-0.0514-0.0234-0.0781-5e-3 -0.0254-1e-3 -0.0645-6e-3 -0.0898zm90.871 2.1524 0.0137 0.14648c-2e-3 -0.0166-8e-3 -0.0322-0.01-0.0488-3e-3 -0.0246-1e-3 -0.0732-4e-3 -0.0977zm65.961 1.0527 0.27539 0.10742c-0.0424-0.0179-0.0903-0.0157-0.13281-0.0332-0.0496-0.019-0.0928-0.0559-0.14258-0.0742zm-195.31 0.49024c-0.02403 6e-3 -0.04629 0.0216-0.07031 0.0273-0.04089 0.0106-0.08614 0.0106-0.12695 0.0215zm200.43 2.998 0.0957 0.10742c-0.0165-0.0191-0.04-0.0318-0.0566-0.0508-0.0163-0.0181-0.0227-0.0386-0.0391-0.0566zm-121.05 3.3594c-0.0326 1.1977-0.15235 2.0233-0.15235 3.3926 0 0.61062 0.0826 0.94094 0.0899 1.5195l-1.4297-2.5039zm-89.891 4.1914c-0.0023 9e-3 -0.0017 0.0199-0.0039 0.0293-0.0016 7e-3 -0.0062 0.0128-0.0078 0.0195z" fill="#fff"/>
   <text x="11.851461" y="223.42897" font-family="'Coming Soon'" font-size="85.333px" style="line-height:1.25" xml:space="preserve"><tspan x="11.851461" y="223.42897" font-family="'Saira Stencil One'" font-size="80px" style="font-variant-caps:normal;font-variant-east-asian:normal;font-variant-ligatures:normal;font-variant-numeric:normal">Makers</tspan></text>
  </g>
 </g>
</svg>
