<?xml version="1.0" encoding="UTF-8" standalone="no"?>
<svg
   xmlns:dc="http://purl.org/dc/elements/1.1/"
   xmlns:cc="http://creativecommons.org/ns#"
   xmlns:rdf="http://www.w3.org/1999/02/22-rdf-syntax-ns#"
   xmlns:svg="http://www.w3.org/2000/svg"
   xmlns="http://www.w3.org/2000/svg"
   xmlns:xlink="http://www.w3.org/1999/xlink"
   xmlns:sodipodi="http://sodipodi.sourceforge.net/DTD/sodipodi-0.dtd"
   xmlns:inkscape="http://www.inkscape.org/namespaces/inkscape"
   width="210mm"
   height="297mm"
   viewBox="0 0 210 297"
   version="1.1"
   id="svg8"
   inkscape:version="1.0.1 (3bc2e813f5, 2020-09-07)"
   sodipodi:docname="repeating-sop8.svg">
  <defs
     id="defs2">
    <clipPath
       clipPathUnits="userSpaceOnUse"
       id="clipPath1600">
      <path
         id="path1602"
         style="fill:#ffffd0;fill-opacity:1;stroke:#000000;stroke-width:0"
         d="m 74.365363,104.16287 h 25.000001 v 25 H 74.365363 Z" />
    </clipPath>
  </defs>
  <sodipodi:namedview
     id="base"
     pagecolor="#ffffff"
     bordercolor="#666666"
     borderopacity="1.0"
     inkscape:pageopacity="0.0"
     inkscape:pageshadow="2"
     inkscape:zoom="0.79204979"
     inkscape:cx="299.38439"
     inkscape:cy="449.40379"
     inkscape:document-units="mm"
     inkscape:current-layer="layer1"
     inkscape:document-rotation="0"
     showgrid="true"
     showguides="true"
     inkscape:guide-bbox="true"
     inkscape:window-width="1726"
     inkscape:window-height="962"
     inkscape:window-x="28"
     inkscape:window-y="65"
     inkscape:window-maximized="0">
    <inkscape:grid
       type="xygrid"
       id="grid889" />
    <sodipodi:guide
       position="74.877084,280.33125"
       orientation="1,0"
       id="guide1082" />
    <sodipodi:guide
       position="11.90625,187.19792"
       orientation="0,-1"
       id="guide1084" />
  </sodipodi:namedview>
  <metadata
     id="metadata5">
    <rdf:RDF>
      <cc:Work
         rdf:about="">
        <dc:format>image/svg+xml</dc:format>
        <dc:type
           rdf:resource="http://purl.org/dc/dcmitype/StillImage" />
        <dc:title />
      </cc:Work>
    </rdf:RDF>
  </metadata>
  <g
     inkscape:label="Layer 1"
     inkscape:groupmode="layer"
     id="layer1"
     style="display:inline">
    <rect
       style="fill:#ffc107;fill-opacity:1;stroke:#000000;stroke-width:0"
       id="rect2590"
       width="203.72917"
       height="291.04166"
       x="2.6458333"
       y="2.6458333" />
  </g>
  <g
     inkscape:groupmode="layer"
     id="layer2"
     inkscape:label="sop8"
     style="opacity:0.99273333">
    <g
       id="g2588"
       transform="translate(-0.2916675,5.708338)">
      <g
         id="g1598"
         clip-path="url(#clipPath1600)"
         transform="translate(-69.073696,-98.871203)"
         inkscape:tile-cx="17.791669"
         inkscape:tile-cy="17.791669"
         inkscape:tile-w="25"
         inkscape:tile-h="24.999999"
         inkscape:tile-x0="5.2916669"
         inkscape:tile-y0="5.2916669">
        <g
           id="g1563">
          <path
             id="rect836-5"
             style="fill:#999999;stroke:#000000;stroke-width:0"
             d="m 103.40731,102.89896 0.32342,0.38131 -5.948368,5.04548 -0.323428,-0.38131 z" />
          <g
             id="g1476">
            <path
               id="rect836-1-3"
               style="fill:#999999;stroke:#000000;stroke-width:0"
               d="m 101.76802,100.96632 0.32342,0.3813 -5.948368,5.04548 -0.323428,-0.3813 z" />
            <path
               id="rect836-88-8"
               style="fill:#999999;stroke:#000000;stroke-width:0"
               d="m 100.94837,99.999998 0.32343,0.381302 -5.948372,5.04548 -0.323429,-0.3813 z" />
            <path
               id="rect836-9-2"
               style="fill:#999999;stroke:#000000;stroke-width:0"
               d="m 102.58766,101.93264 0.32343,0.38131 -5.948372,5.04548 -0.323429,-0.38131 z" />
            <path
               id="rect834-4"
               style="fill:#000000;stroke:#000000;stroke-width:0"
               d="m 99.221184,101.05561 3.186296,3.75648 c 0.0939,0.11073 0.0804,0.27548 -0.0303,0.36941 l -2.498178,2.11898 c -0.110731,0.0939 -0.275486,0.0804 -0.36941,-0.0303 l -3.186293,-3.75648 c -0.09392,-0.11073 -0.08039,-0.27549 0.03034,-0.36941 l 2.498179,-2.11899 c 0.110731,-0.0939 0.275486,-0.0804 0.36941,0.0303 z" />
            <path
               id="path883-2"
               style="fill:#4d4d4d;stroke:#000000;stroke-width:0"
               d="m 97.508785,103.67851 a 0.39968091,0.39968091 0 0 1 -0.563337,-0.0463 0.39968091,0.39968091 0 0 1 0.04627,-0.56334 0.39968091,0.39968091 0 0 1 0.563337,0.0463 0.39968091,0.39968091 0 0 1 -0.04626,0.56333 z" />
          </g>
        </g>
        <g
           id="g1486">
          <g
             id="g1283">
            <g
               id="g881-7-8"
               transform="rotate(49.694997,65.191015,154.56643)">
              <path
                 id="rect836-5-3"
                 style="fill:#999999;stroke:#000000;stroke-width:0"
                 d="m 69.574539,108.17221 h 0.5 v 7.8 h -0.5 z" />
              <path
                 id="rect836-1-3-6"
                 style="fill:#999999;stroke:#000000;stroke-width:0"
                 d="m 67.040298,108.17221 h 0.5 v 7.8 h -0.5 z" />
              <path
                 id="rect836-88-8-2"
                 style="fill:#999999;stroke:#000000;stroke-width:0"
                 d="m 65.773178,108.17221 h 0.5 v 7.8 h -0.5 z" />
              <path
                 id="rect836-9-2-5"
                 style="fill:#999999;stroke:#000000;stroke-width:0"
                 d="m 68.307419,108.17221 h 0.5 v 7.8 h -0.5 z" />
            </g>
            <path
               id="rect834-4-9"
               style="fill:#000000;stroke:#000000;stroke-width:0"
               d="m 99.221185,126.0556 3.186295,3.75649 c 0.0939,0.11073 0.0804,0.27548 -0.0303,0.36941 l -2.498177,2.11898 c -0.110731,0.0939 -0.275487,0.0804 -0.36941,-0.0303 L 96.3233,128.5137 c -0.09392,-0.11073 -0.0804,-0.27549 0.03034,-0.36941 l 2.498179,-2.11899 c 0.110731,-0.0939 0.275486,-0.0804 0.36941,0.0303 z" />
            <path
               id="path883-2-0"
               style="fill:#4d4d4d;stroke:#000000;stroke-width:0"
               d="m 97.508786,128.67851 a 0.39968091,0.39968091 0 0 1 -0.563337,-0.0463 0.39968091,0.39968091 0 0 1 0.04627,-0.56334 0.39968091,0.39968091 0 0 1 0.563337,0.0463 0.39968091,0.39968091 0 0 1 -0.04627,0.56334 z" />
          </g>
        </g>
        <g
           id="g1292">
          <g
             id="g881-7-8-7"
             transform="rotate(49.694997,52.691012,127.57274)">
            <path
               id="rect836-5-3-3"
               style="fill:#999999;stroke:#000000;stroke-width:0"
               d="m 69.574539,108.17221 h 0.5 v 7.8 h -0.5 z" />
            <path
               id="rect836-1-3-6-7"
               style="fill:#999999;stroke:#000000;stroke-width:0"
               d="m 67.040298,108.17221 h 0.5 v 7.8 h -0.5 z" />
            <path
               id="rect836-88-8-2-6"
               style="fill:#999999;stroke:#000000;stroke-width:0"
               d="m 65.773178,108.17221 h 0.5 v 7.8 h -0.5 z" />
            <path
               id="rect836-9-2-5-4"
               style="fill:#999999;stroke:#000000;stroke-width:0"
               d="m 68.307419,108.17221 h 0.5 v 7.8 h -0.5 z" />
          </g>
          <path
             id="rect834-4-9-0"
             style="fill:#000000;stroke:#000000;stroke-width:0"
             d="m 74.221181,126.05561 3.186293,3.75648 c 0.09392,0.11073 0.0804,0.27549 -0.03034,0.36941 l -2.498179,2.11898 c -0.110732,0.0939 -0.275487,0.0804 -0.36941,-0.0303 l -3.186293,-3.75648 c -0.09392,-0.11073 -0.0804,-0.27549 0.03033,-0.36941 l 2.49818,-2.11899 c 0.110731,-0.0939 0.275486,-0.0804 0.36941,0.0303 z" />
          <path
             id="path883-2-0-5"
             style="fill:#4d4d4d;stroke:#000000;stroke-width:0"
             d="m 72.508782,128.67851 a 0.39968091,0.39968091 0 0 1 -0.563337,-0.0463 0.39968091,0.39968091 0 0 1 0.04626,-0.56334 0.39968091,0.39968091 0 0 1 0.563336,0.0463 0.39968091,0.39968091 0 0 1 -0.04626,0.56333 z" />
        </g>
        <g
           id="g1469">
          <g
             id="g881-7-8-6"
             transform="rotate(49.694997,79.684697,115.07274)">
            <path
               id="rect836-5-3-36"
               style="fill:#999999;stroke:#000000;stroke-width:0"
               d="m 69.574539,108.17221 h 0.5 v 7.8 h -0.5 z" />
            <path
               id="rect836-1-3-6-2"
               style="fill:#999999;stroke:#000000;stroke-width:0"
               d="m 67.040298,108.17221 h 0.5 v 7.8 h -0.5 z" />
            <path
               id="rect836-88-8-2-8"
               style="fill:#999999;stroke:#000000;stroke-width:0"
               d="m 65.773178,108.17221 h 0.5 v 7.8 h -0.5 z" />
            <path
               id="rect836-9-2-5-8"
               style="fill:#999999;stroke:#000000;stroke-width:0"
               d="m 68.307419,108.17221 h 0.5 v 7.8 h -0.5 z" />
          </g>
          <path
             id="rect834-4-9-9"
             style="fill:#000000;stroke:#000000;stroke-width:0"
             d="m 74.22118,101.05561 3.186293,3.75648 c 0.09392,0.11073 0.0804,0.27549 -0.03033,0.36941 l -2.49818,2.11898 c -0.110731,0.0939 -0.275486,0.0804 -0.36941,-0.0303 L 71.32326,103.5137 c -0.09392,-0.11073 -0.0804,-0.27549 0.03034,-0.36941 l 2.498179,-2.11899 c 0.110732,-0.0939 0.275487,-0.0804 0.36941,0.0303 z" />
          <path
             id="path883-2-0-8"
             style="fill:#4d4d4d;stroke:#000000;stroke-width:0"
             d="m 72.508782,103.67851 a 0.39968091,0.39968091 0 0 1 -0.563337,-0.0463 0.39968091,0.39968091 0 0 1 0.04626,-0.56334 0.39968091,0.39968091 0 0 1 0.563336,0.0463 0.39968091,0.39968091 0 0 1 -0.04626,0.56333 z" />
        </g>
      </g>
      <use
         x="0"
         y="0"
         inkscape:tiled-clone-of="#g1598"
         xlink:href="#g1598"
         id="use2290"
         width="100%"
         height="100%" />
      <use
         x="0"
         y="0"
         inkscape:tiled-clone-of="#g1598"
         xlink:href="#g1598"
         transform="translate(0,24.999999)"
         id="use2292"
         width="100%"
         height="100%" />
      <use
         x="0"
         y="0"
         inkscape:tiled-clone-of="#g1598"
         xlink:href="#g1598"
         transform="translate(0,49.999998)"
         id="use2294"
         width="100%"
         height="100%" />
      <use
         x="0"
         y="0"
         inkscape:tiled-clone-of="#g1598"
         xlink:href="#g1598"
         transform="translate(0,74.999997)"
         id="use2296"
         width="100%"
         height="100%" />
      <use
         x="0"
         y="0"
         inkscape:tiled-clone-of="#g1598"
         xlink:href="#g1598"
         transform="translate(0,99.999996)"
         id="use2298"
         width="100%"
         height="100%" />
      <use
         x="0"
         y="0"
         inkscape:tiled-clone-of="#g1598"
         xlink:href="#g1598"
         transform="translate(0,125)"
         id="use2300"
         width="100%"
         height="100%" />
      <use
         x="0"
         y="0"
         inkscape:tiled-clone-of="#g1598"
         xlink:href="#g1598"
         transform="translate(0,149.99999)"
         id="use2302"
         width="100%"
         height="100%" />
      <use
         x="0"
         y="0"
         inkscape:tiled-clone-of="#g1598"
         xlink:href="#g1598"
         transform="translate(0,174.99999)"
         id="use2304"
         width="100%"
         height="100%" />
      <use
         x="0"
         y="0"
         inkscape:tiled-clone-of="#g1598"
         xlink:href="#g1598"
         transform="translate(0,199.99999)"
         id="use2306"
         width="100%"
         height="100%" />
      <use
         x="0"
         y="0"
         inkscape:tiled-clone-of="#g1598"
         xlink:href="#g1598"
         transform="translate(0,224.99999)"
         id="use2308"
         width="100%"
         height="100%" />
      <use
         x="0"
         y="0"
         inkscape:tiled-clone-of="#g1598"
         xlink:href="#g1598"
         transform="translate(0,249.99999)"
         id="use2310"
         width="100%"
         height="100%" />
      <use
         x="0"
         y="0"
         inkscape:tiled-clone-of="#g1598"
         xlink:href="#g1598"
         transform="translate(25)"
         id="use2312"
         width="100%"
         height="100%" />
      <use
         x="0"
         y="0"
         inkscape:tiled-clone-of="#g1598"
         xlink:href="#g1598"
         transform="translate(25,24.999999)"
         id="use2314"
         width="100%"
         height="100%" />
      <use
         x="0"
         y="0"
         inkscape:tiled-clone-of="#g1598"
         xlink:href="#g1598"
         transform="translate(25,49.999998)"
         id="use2316"
         width="100%"
         height="100%" />
      <use
         x="0"
         y="0"
         inkscape:tiled-clone-of="#g1598"
         xlink:href="#g1598"
         transform="translate(25,74.999997)"
         id="use2318"
         width="100%"
         height="100%" />
      <use
         x="0"
         y="0"
         inkscape:tiled-clone-of="#g1598"
         xlink:href="#g1598"
         transform="translate(25,99.999996)"
         id="use2320"
         width="100%"
         height="100%" />
      <use
         x="0"
         y="0"
         inkscape:tiled-clone-of="#g1598"
         xlink:href="#g1598"
         transform="translate(25,125)"
         id="use2322"
         width="100%"
         height="100%" />
      <use
         x="0"
         y="0"
         inkscape:tiled-clone-of="#g1598"
         xlink:href="#g1598"
         transform="translate(25,149.99999)"
         id="use2324"
         width="100%"
         height="100%" />
      <use
         x="0"
         y="0"
         inkscape:tiled-clone-of="#g1598"
         xlink:href="#g1598"
         transform="translate(25,174.99999)"
         id="use2326"
         width="100%"
         height="100%" />
      <use
         x="0"
         y="0"
         inkscape:tiled-clone-of="#g1598"
         xlink:href="#g1598"
         transform="translate(25,199.99999)"
         id="use2328"
         width="100%"
         height="100%" />
      <use
         x="0"
         y="0"
         inkscape:tiled-clone-of="#g1598"
         xlink:href="#g1598"
         transform="translate(25,224.99999)"
         id="use2330"
         width="100%"
         height="100%" />
      <use
         x="0"
         y="0"
         inkscape:tiled-clone-of="#g1598"
         xlink:href="#g1598"
         transform="translate(25,249.99999)"
         id="use2332"
         width="100%"
         height="100%" />
      <use
         x="0"
         y="0"
         inkscape:tiled-clone-of="#g1598"
         xlink:href="#g1598"
         transform="translate(50)"
         id="use2334"
         width="100%"
         height="100%" />
      <use
         x="0"
         y="0"
         inkscape:tiled-clone-of="#g1598"
         xlink:href="#g1598"
         transform="translate(50,24.999999)"
         id="use2336"
         width="100%"
         height="100%" />
      <use
         x="0"
         y="0"
         inkscape:tiled-clone-of="#g1598"
         xlink:href="#g1598"
         transform="translate(50,49.999998)"
         id="use2338"
         width="100%"
         height="100%" />
      <use
         x="0"
         y="0"
         inkscape:tiled-clone-of="#g1598"
         xlink:href="#g1598"
         transform="translate(50,74.999997)"
         id="use2340"
         width="100%"
         height="100%" />
      <use
         x="0"
         y="0"
         inkscape:tiled-clone-of="#g1598"
         xlink:href="#g1598"
         transform="translate(50,99.999996)"
         id="use2342"
         width="100%"
         height="100%" />
      <use
         x="0"
         y="0"
         inkscape:tiled-clone-of="#g1598"
         xlink:href="#g1598"
         transform="translate(50,125)"
         id="use2344"
         width="100%"
         height="100%" />
      <use
         x="0"
         y="0"
         inkscape:tiled-clone-of="#g1598"
         xlink:href="#g1598"
         transform="translate(50,149.99999)"
         id="use2346"
         width="100%"
         height="100%" />
      <use
         x="0"
         y="0"
         inkscape:tiled-clone-of="#g1598"
         xlink:href="#g1598"
         transform="translate(50,174.99999)"
         id="use2348"
         width="100%"
         height="100%" />
      <use
         x="0"
         y="0"
         inkscape:tiled-clone-of="#g1598"
         xlink:href="#g1598"
         transform="translate(50,199.99999)"
         id="use2350"
         width="100%"
         height="100%" />
      <use
         x="0"
         y="0"
         inkscape:tiled-clone-of="#g1598"
         xlink:href="#g1598"
         transform="translate(50,224.99999)"
         id="use2352"
         width="100%"
         height="100%" />
      <use
         x="0"
         y="0"
         inkscape:tiled-clone-of="#g1598"
         xlink:href="#g1598"
         transform="translate(50,249.99999)"
         id="use2354"
         width="100%"
         height="100%" />
      <use
         x="0"
         y="0"
         inkscape:tiled-clone-of="#g1598"
         xlink:href="#g1598"
         transform="translate(75)"
         id="use2356"
         width="100%"
         height="100%" />
      <use
         x="0"
         y="0"
         inkscape:tiled-clone-of="#g1598"
         xlink:href="#g1598"
         transform="translate(75,24.999999)"
         id="use2358"
         width="100%"
         height="100%" />
      <use
         x="0"
         y="0"
         inkscape:tiled-clone-of="#g1598"
         xlink:href="#g1598"
         transform="translate(75,49.999998)"
         id="use2360"
         width="100%"
         height="100%" />
      <use
         x="0"
         y="0"
         inkscape:tiled-clone-of="#g1598"
         xlink:href="#g1598"
         transform="translate(75,74.999997)"
         id="use2362"
         width="100%"
         height="100%" />
      <use
         x="0"
         y="0"
         inkscape:tiled-clone-of="#g1598"
         xlink:href="#g1598"
         transform="translate(75,99.999996)"
         id="use2364"
         width="100%"
         height="100%" />
      <use
         x="0"
         y="0"
         inkscape:tiled-clone-of="#g1598"
         xlink:href="#g1598"
         transform="translate(75,125)"
         id="use2366"
         width="100%"
         height="100%" />
      <use
         x="0"
         y="0"
         inkscape:tiled-clone-of="#g1598"
         xlink:href="#g1598"
         transform="translate(75,149.99999)"
         id="use2368"
         width="100%"
         height="100%" />
      <use
         x="0"
         y="0"
         inkscape:tiled-clone-of="#g1598"
         xlink:href="#g1598"
         transform="translate(75,174.99999)"
         id="use2370"
         width="100%"
         height="100%" />
      <use
         x="0"
         y="0"
         inkscape:tiled-clone-of="#g1598"
         xlink:href="#g1598"
         transform="translate(75,199.99999)"
         id="use2372"
         width="100%"
         height="100%" />
      <use
         x="0"
         y="0"
         inkscape:tiled-clone-of="#g1598"
         xlink:href="#g1598"
         transform="translate(75,224.99999)"
         id="use2374"
         width="100%"
         height="100%" />
      <use
         x="0"
         y="0"
         inkscape:tiled-clone-of="#g1598"
         xlink:href="#g1598"
         transform="translate(75,249.99999)"
         id="use2376"
         width="100%"
         height="100%" />
      <use
         x="0"
         y="0"
         inkscape:tiled-clone-of="#g1598"
         xlink:href="#g1598"
         transform="translate(100)"
         id="use2378"
         width="100%"
         height="100%" />
      <use
         x="0"
         y="0"
         inkscape:tiled-clone-of="#g1598"
         xlink:href="#g1598"
         transform="translate(100,24.999999)"
         id="use2380"
         width="100%"
         height="100%" />
      <use
         x="0"
         y="0"
         inkscape:tiled-clone-of="#g1598"
         xlink:href="#g1598"
         transform="translate(100,49.999998)"
         id="use2382"
         width="100%"
         height="100%" />
      <use
         x="0"
         y="0"
         inkscape:tiled-clone-of="#g1598"
         xlink:href="#g1598"
         transform="translate(100,74.999997)"
         id="use2384"
         width="100%"
         height="100%" />
      <use
         x="0"
         y="0"
         inkscape:tiled-clone-of="#g1598"
         xlink:href="#g1598"
         transform="translate(100,99.999996)"
         id="use2386"
         width="100%"
         height="100%" />
      <use
         x="0"
         y="0"
         inkscape:tiled-clone-of="#g1598"
         xlink:href="#g1598"
         transform="translate(100,125)"
         id="use2388"
         width="100%"
         height="100%" />
      <use
         x="0"
         y="0"
         inkscape:tiled-clone-of="#g1598"
         xlink:href="#g1598"
         transform="translate(100,149.99999)"
         id="use2390"
         width="100%"
         height="100%" />
      <use
         x="0"
         y="0"
         inkscape:tiled-clone-of="#g1598"
         xlink:href="#g1598"
         transform="translate(100,174.99999)"
         id="use2392"
         width="100%"
         height="100%" />
      <use
         x="0"
         y="0"
         inkscape:tiled-clone-of="#g1598"
         xlink:href="#g1598"
         transform="translate(100,199.99999)"
         id="use2394"
         width="100%"
         height="100%" />
      <use
         x="0"
         y="0"
         inkscape:tiled-clone-of="#g1598"
         xlink:href="#g1598"
         transform="translate(100,224.99999)"
         id="use2396"
         width="100%"
         height="100%" />
      <use
         x="0"
         y="0"
         inkscape:tiled-clone-of="#g1598"
         xlink:href="#g1598"
         transform="translate(100,249.99999)"
         id="use2398"
         width="100%"
         height="100%" />
      <use
         x="0"
         y="0"
         inkscape:tiled-clone-of="#g1598"
         xlink:href="#g1598"
         transform="translate(125)"
         id="use2400"
         width="100%"
         height="100%" />
      <use
         x="0"
         y="0"
         inkscape:tiled-clone-of="#g1598"
         xlink:href="#g1598"
         transform="translate(125,24.999999)"
         id="use2402"
         width="100%"
         height="100%" />
      <use
         x="0"
         y="0"
         inkscape:tiled-clone-of="#g1598"
         xlink:href="#g1598"
         transform="translate(125,49.999998)"
         id="use2404"
         width="100%"
         height="100%" />
      <use
         x="0"
         y="0"
         inkscape:tiled-clone-of="#g1598"
         xlink:href="#g1598"
         transform="translate(125,74.999997)"
         id="use2406"
         width="100%"
         height="100%" />
      <use
         x="0"
         y="0"
         inkscape:tiled-clone-of="#g1598"
         xlink:href="#g1598"
         transform="translate(125,99.999996)"
         id="use2408"
         width="100%"
         height="100%" />
      <use
         x="0"
         y="0"
         inkscape:tiled-clone-of="#g1598"
         xlink:href="#g1598"
         transform="translate(125,125)"
         id="use2410"
         width="100%"
         height="100%" />
      <use
         x="0"
         y="0"
         inkscape:tiled-clone-of="#g1598"
         xlink:href="#g1598"
         transform="translate(125,149.99999)"
         id="use2412"
         width="100%"
         height="100%" />
      <use
         x="0"
         y="0"
         inkscape:tiled-clone-of="#g1598"
         xlink:href="#g1598"
         transform="translate(125,174.99999)"
         id="use2414"
         width="100%"
         height="100%" />
      <use
         x="0"
         y="0"
         inkscape:tiled-clone-of="#g1598"
         xlink:href="#g1598"
         transform="translate(125,199.99999)"
         id="use2416"
         width="100%"
         height="100%" />
      <use
         x="0"
         y="0"
         inkscape:tiled-clone-of="#g1598"
         xlink:href="#g1598"
         transform="translate(125,224.99999)"
         id="use2418"
         width="100%"
         height="100%" />
      <use
         x="0"
         y="0"
         inkscape:tiled-clone-of="#g1598"
         xlink:href="#g1598"
         transform="translate(125,249.99999)"
         id="use2420"
         width="100%"
         height="100%" />
      <use
         x="0"
         y="0"
         inkscape:tiled-clone-of="#g1598"
         xlink:href="#g1598"
         transform="translate(150)"
         id="use2422"
         width="100%"
         height="100%" />
      <use
         x="0"
         y="0"
         inkscape:tiled-clone-of="#g1598"
         xlink:href="#g1598"
         transform="translate(150,24.999999)"
         id="use2424"
         width="100%"
         height="100%" />
      <use
         x="0"
         y="0"
         inkscape:tiled-clone-of="#g1598"
         xlink:href="#g1598"
         transform="translate(150,49.999998)"
         id="use2426"
         width="100%"
         height="100%" />
      <use
         x="0"
         y="0"
         inkscape:tiled-clone-of="#g1598"
         xlink:href="#g1598"
         transform="translate(150,74.999997)"
         id="use2428"
         width="100%"
         height="100%" />
      <use
         x="0"
         y="0"
         inkscape:tiled-clone-of="#g1598"
         xlink:href="#g1598"
         transform="translate(150,99.999996)"
         id="use2430"
         width="100%"
         height="100%" />
      <use
         x="0"
         y="0"
         inkscape:tiled-clone-of="#g1598"
         xlink:href="#g1598"
         transform="translate(150,125)"
         id="use2432"
         width="100%"
         height="100%" />
      <use
         x="0"
         y="0"
         inkscape:tiled-clone-of="#g1598"
         xlink:href="#g1598"
         transform="translate(150,149.99999)"
         id="use2434"
         width="100%"
         height="100%" />
      <use
         x="0"
         y="0"
         inkscape:tiled-clone-of="#g1598"
         xlink:href="#g1598"
         transform="translate(150,174.99999)"
         id="use2436"
         width="100%"
         height="100%" />
      <use
         x="0"
         y="0"
         inkscape:tiled-clone-of="#g1598"
         xlink:href="#g1598"
         transform="translate(150,199.99999)"
         id="use2438"
         width="100%"
         height="100%" />
      <use
         x="0"
         y="0"
         inkscape:tiled-clone-of="#g1598"
         xlink:href="#g1598"
         transform="translate(150,224.99999)"
         id="use2440"
         width="100%"
         height="100%" />
      <use
         x="0"
         y="0"
         inkscape:tiled-clone-of="#g1598"
         xlink:href="#g1598"
         transform="translate(150,249.99999)"
         id="use2442"
         width="100%"
         height="100%" />
      <use
         x="0"
         y="0"
         inkscape:tiled-clone-of="#g1598"
         xlink:href="#g1598"
         transform="translate(175)"
         id="use2444"
         width="100%"
         height="100%" />
      <use
         x="0"
         y="0"
         inkscape:tiled-clone-of="#g1598"
         xlink:href="#g1598"
         transform="translate(175,24.999999)"
         id="use2446"
         width="100%"
         height="100%" />
      <use
         x="0"
         y="0"
         inkscape:tiled-clone-of="#g1598"
         xlink:href="#g1598"
         transform="translate(175,49.999998)"
         id="use2448"
         width="100%"
         height="100%" />
      <use
         x="0"
         y="0"
         inkscape:tiled-clone-of="#g1598"
         xlink:href="#g1598"
         transform="translate(175,74.999997)"
         id="use2450"
         width="100%"
         height="100%" />
      <use
         x="0"
         y="0"
         inkscape:tiled-clone-of="#g1598"
         xlink:href="#g1598"
         transform="translate(175,99.999996)"
         id="use2452"
         width="100%"
         height="100%" />
      <use
         x="0"
         y="0"
         inkscape:tiled-clone-of="#g1598"
         xlink:href="#g1598"
         transform="translate(175,125)"
         id="use2454"
         width="100%"
         height="100%" />
      <use
         x="0"
         y="0"
         inkscape:tiled-clone-of="#g1598"
         xlink:href="#g1598"
         transform="translate(175,149.99999)"
         id="use2456"
         width="100%"
         height="100%" />
      <use
         x="0"
         y="0"
         inkscape:tiled-clone-of="#g1598"
         xlink:href="#g1598"
         transform="translate(175,174.99999)"
         id="use2458"
         width="100%"
         height="100%" />
      <use
         x="0"
         y="0"
         inkscape:tiled-clone-of="#g1598"
         xlink:href="#g1598"
         transform="translate(175,199.99999)"
         id="use2460"
         width="100%"
         height="100%" />
      <use
         x="0"
         y="0"
         inkscape:tiled-clone-of="#g1598"
         xlink:href="#g1598"
         transform="translate(175,224.99999)"
         id="use2462"
         width="100%"
         height="100%" />
      <use
         x="0"
         y="0"
         inkscape:tiled-clone-of="#g1598"
         xlink:href="#g1598"
         transform="translate(175,249.99999)"
         id="use2464"
         width="100%"
         height="100%" />
    </g>
  </g>
</svg>
