<?xml version="1.0" standalone="yes"?>
<svg version="1.1" xmlns="http://www.w3.org/2000/svg" xmlns:xlink="http://www.w3.org/1999/xlink" xmlns:ev="http://www.w3.org/2001/xml-events" width="407" height="407" shape-rendering="crispEdges">
<rect width="11" height="11" x="0" y="0" style="fill:#000"/><rect width="11" height="11" x="11" y="0" style="fill:#000"/><rect width="11" height="11" x="22" y="0" style="fill:#000"/><rect width="11" height="11" x="33" y="0" style="fill:#000"/><rect width="11" height="11" x="44" y="0" style="fill:#000"/><rect width="11" height="11" x="55" y="0" style="fill:#000"/><rect width="11" height="11" x="66" y="0" style="fill:#000"/><rect width="11" height="11" x="88" y="0" style="fill:#000"/><rect width="11" height="11" x="132" y="0" style="fill:#000"/><rect width="11" height="11" x="143" y="0" style="fill:#000"/><rect width="11" height="11" x="165" y="0" style="fill:#000"/><rect width="11" height="11" x="176" y="0" style="fill:#000"/><rect width="11" height="11" x="198" y="0" style="fill:#000"/><rect width="11" height="11" x="220" y="0" style="fill:#000"/><rect width="11" height="11" x="242" y="0" style="fill:#000"/><rect width="11" height="11" x="264" y="0" style="fill:#000"/><rect width="11" height="11" x="297" y="0" style="fill:#000"/><rect width="11" height="11" x="330" y="0" style="fill:#000"/><rect width="11" height="11" x="341" y="0" style="fill:#000"/><rect width="11" height="11" x="352" y="0" style="fill:#000"/><rect width="11" height="11" x="363" y="0" style="fill:#000"/><rect width="11" height="11" x="374" y="0" style="fill:#000"/><rect width="11" height="11" x="385" y="0" style="fill:#000"/><rect width="11" height="11" x="396" y="0" style="fill:#000"/>
<rect width="11" height="11" x="0" y="11" style="fill:#000"/><rect width="11" height="11" x="66" y="11" style="fill:#000"/><rect width="11" height="11" x="132" y="11" style="fill:#000"/><rect width="11" height="11" x="143" y="11" style="fill:#000"/><rect width="11" height="11" x="154" y="11" style="fill:#000"/><rect width="11" height="11" x="176" y="11" style="fill:#000"/><rect width="11" height="11" x="198" y="11" style="fill:#000"/><rect width="11" height="11" x="209" y="11" style="fill:#000"/><rect width="11" height="11" x="220" y="11" style="fill:#000"/><rect width="11" height="11" x="231" y="11" style="fill:#000"/><rect width="11" height="11" x="242" y="11" style="fill:#000"/><rect width="11" height="11" x="253" y="11" style="fill:#000"/><rect width="11" height="11" x="264" y="11" style="fill:#000"/><rect width="11" height="11" x="297" y="11" style="fill:#000"/><rect width="11" height="11" x="308" y="11" style="fill:#000"/><rect width="11" height="11" x="330" y="11" style="fill:#000"/><rect width="11" height="11" x="396" y="11" style="fill:#000"/>
<rect width="11" height="11" x="0" y="22" style="fill:#000"/><rect width="11" height="11" x="22" y="22" style="fill:#000"/><rect width="11" height="11" x="33" y="22" style="fill:#000"/><rect width="11" height="11" x="44" y="22" style="fill:#000"/><rect width="11" height="11" x="66" y="22" style="fill:#000"/><rect width="11" height="11" x="99" y="22" style="fill:#000"/><rect width="11" height="11" x="132" y="22" style="fill:#000"/><rect width="11" height="11" x="143" y="22" style="fill:#000"/><rect width="11" height="11" x="154" y="22" style="fill:#000"/><rect width="11" height="11" x="209" y="22" style="fill:#000"/><rect width="11" height="11" x="231" y="22" style="fill:#000"/><rect width="11" height="11" x="242" y="22" style="fill:#000"/><rect width="11" height="11" x="253" y="22" style="fill:#000"/><rect width="11" height="11" x="264" y="22" style="fill:#000"/><rect width="11" height="11" x="286" y="22" style="fill:#000"/><rect width="11" height="11" x="297" y="22" style="fill:#000"/><rect width="11" height="11" x="330" y="22" style="fill:#000"/><rect width="11" height="11" x="352" y="22" style="fill:#000"/><rect width="11" height="11" x="363" y="22" style="fill:#000"/><rect width="11" height="11" x="374" y="22" style="fill:#000"/><rect width="11" height="11" x="396" y="22" style="fill:#000"/>
<rect width="11" height="11" x="0" y="33" style="fill:#000"/><rect width="11" height="11" x="22" y="33" style="fill:#000"/><rect width="11" height="11" x="33" y="33" style="fill:#000"/><rect width="11" height="11" x="44" y="33" style="fill:#000"/><rect width="11" height="11" x="66" y="33" style="fill:#000"/><rect width="11" height="11" x="88" y="33" style="fill:#000"/><rect width="11" height="11" x="99" y="33" style="fill:#000"/><rect width="11" height="11" x="110" y="33" style="fill:#000"/><rect width="11" height="11" x="121" y="33" style="fill:#000"/><rect width="11" height="11" x="154" y="33" style="fill:#000"/><rect width="11" height="11" x="165" y="33" style="fill:#000"/><rect width="11" height="11" x="187" y="33" style="fill:#000"/><rect width="11" height="11" x="198" y="33" style="fill:#000"/><rect width="11" height="11" x="264" y="33" style="fill:#000"/><rect width="11" height="11" x="330" y="33" style="fill:#000"/><rect width="11" height="11" x="352" y="33" style="fill:#000"/><rect width="11" height="11" x="363" y="33" style="fill:#000"/><rect width="11" height="11" x="374" y="33" style="fill:#000"/><rect width="11" height="11" x="396" y="33" style="fill:#000"/>
<rect width="11" height="11" x="0" y="44" style="fill:#000"/><rect width="11" height="11" x="22" y="44" style="fill:#000"/><rect width="11" height="11" x="33" y="44" style="fill:#000"/><rect width="11" height="11" x="44" y="44" style="fill:#000"/><rect width="11" height="11" x="66" y="44" style="fill:#000"/><rect width="11" height="11" x="154" y="44" style="fill:#000"/><rect width="11" height="11" x="176" y="44" style="fill:#000"/><rect width="11" height="11" x="198" y="44" style="fill:#000"/><rect width="11" height="11" x="220" y="44" style="fill:#000"/><rect width="11" height="11" x="231" y="44" style="fill:#000"/><rect width="11" height="11" x="242" y="44" style="fill:#000"/><rect width="11" height="11" x="264" y="44" style="fill:#000"/><rect width="11" height="11" x="297" y="44" style="fill:#000"/><rect width="11" height="11" x="308" y="44" style="fill:#000"/><rect width="11" height="11" x="330" y="44" style="fill:#000"/><rect width="11" height="11" x="352" y="44" style="fill:#000"/><rect width="11" height="11" x="363" y="44" style="fill:#000"/><rect width="11" height="11" x="374" y="44" style="fill:#000"/><rect width="11" height="11" x="396" y="44" style="fill:#000"/>
<rect width="11" height="11" x="0" y="55" style="fill:#000"/><rect width="11" height="11" x="66" y="55" style="fill:#000"/><rect width="11" height="11" x="99" y="55" style="fill:#000"/><rect width="11" height="11" x="132" y="55" style="fill:#000"/><rect width="11" height="11" x="165" y="55" style="fill:#000"/><rect width="11" height="11" x="176" y="55" style="fill:#000"/><rect width="11" height="11" x="187" y="55" style="fill:#000"/><rect width="11" height="11" x="209" y="55" style="fill:#000"/><rect width="11" height="11" x="242" y="55" style="fill:#000"/><rect width="11" height="11" x="253" y="55" style="fill:#000"/><rect width="11" height="11" x="264" y="55" style="fill:#000"/><rect width="11" height="11" x="275" y="55" style="fill:#000"/><rect width="11" height="11" x="297" y="55" style="fill:#000"/><rect width="11" height="11" x="308" y="55" style="fill:#000"/><rect width="11" height="11" x="330" y="55" style="fill:#000"/><rect width="11" height="11" x="396" y="55" style="fill:#000"/>
<rect width="11" height="11" x="0" y="66" style="fill:#000"/><rect width="11" height="11" x="11" y="66" style="fill:#000"/><rect width="11" height="11" x="22" y="66" style="fill:#000"/><rect width="11" height="11" x="33" y="66" style="fill:#000"/><rect width="11" height="11" x="44" y="66" style="fill:#000"/><rect width="11" height="11" x="55" y="66" style="fill:#000"/><rect width="11" height="11" x="66" y="66" style="fill:#000"/><rect width="11" height="11" x="88" y="66" style="fill:#000"/><rect width="11" height="11" x="110" y="66" style="fill:#000"/><rect width="11" height="11" x="132" y="66" style="fill:#000"/><rect width="11" height="11" x="154" y="66" style="fill:#000"/><rect width="11" height="11" x="176" y="66" style="fill:#000"/><rect width="11" height="11" x="198" y="66" style="fill:#000"/><rect width="11" height="11" x="220" y="66" style="fill:#000"/><rect width="11" height="11" x="242" y="66" style="fill:#000"/><rect width="11" height="11" x="264" y="66" style="fill:#000"/><rect width="11" height="11" x="286" y="66" style="fill:#000"/><rect width="11" height="11" x="308" y="66" style="fill:#000"/><rect width="11" height="11" x="330" y="66" style="fill:#000"/><rect width="11" height="11" x="341" y="66" style="fill:#000"/><rect width="11" height="11" x="352" y="66" style="fill:#000"/><rect width="11" height="11" x="363" y="66" style="fill:#000"/><rect width="11" height="11" x="374" y="66" style="fill:#000"/><rect width="11" height="11" x="385" y="66" style="fill:#000"/><rect width="11" height="11" x="396" y="66" style="fill:#000"/>
<rect width="11" height="11" x="121" y="77" style="fill:#000"/><rect width="11" height="11" x="143" y="77" style="fill:#000"/><rect width="11" height="11" x="176" y="77" style="fill:#000"/><rect width="11" height="11" x="220" y="77" style="fill:#000"/><rect width="11" height="11" x="242" y="77" style="fill:#000"/><rect width="11" height="11" x="253" y="77" style="fill:#000"/><rect width="11" height="11" x="264" y="77" style="fill:#000"/><rect width="11" height="11" x="275" y="77" style="fill:#000"/><rect width="11" height="11" x="286" y="77" style="fill:#000"/><rect width="11" height="11" x="308" y="77" style="fill:#000"/>
<rect width="11" height="11" x="22" y="88" style="fill:#000"/><rect width="11" height="11" x="44" y="88" style="fill:#000"/><rect width="11" height="11" x="55" y="88" style="fill:#000"/><rect width="11" height="11" x="66" y="88" style="fill:#000"/><rect width="11" height="11" x="88" y="88" style="fill:#000"/><rect width="11" height="11" x="99" y="88" style="fill:#000"/><rect width="11" height="11" x="121" y="88" style="fill:#000"/><rect width="11" height="11" x="143" y="88" style="fill:#000"/><rect width="11" height="11" x="154" y="88" style="fill:#000"/><rect width="11" height="11" x="165" y="88" style="fill:#000"/><rect width="11" height="11" x="176" y="88" style="fill:#000"/><rect width="11" height="11" x="187" y="88" style="fill:#000"/><rect width="11" height="11" x="220" y="88" style="fill:#000"/><rect width="11" height="11" x="242" y="88" style="fill:#000"/><rect width="11" height="11" x="253" y="88" style="fill:#000"/><rect width="11" height="11" x="286" y="88" style="fill:#000"/><rect width="11" height="11" x="297" y="88" style="fill:#000"/><rect width="11" height="11" x="308" y="88" style="fill:#000"/><rect width="11" height="11" x="319" y="88" style="fill:#000"/><rect width="11" height="11" x="363" y="88" style="fill:#000"/><rect width="11" height="11" x="396" y="88" style="fill:#000"/>
<rect width="11" height="11" x="0" y="99" style="fill:#000"/><rect width="11" height="11" x="11" y="99" style="fill:#000"/><rect width="11" height="11" x="22" y="99" style="fill:#000"/><rect width="11" height="11" x="33" y="99" style="fill:#000"/><rect width="11" height="11" x="44" y="99" style="fill:#000"/><rect width="11" height="11" x="77" y="99" style="fill:#000"/><rect width="11" height="11" x="88" y="99" style="fill:#000"/><rect width="11" height="11" x="99" y="99" style="fill:#000"/><rect width="11" height="11" x="176" y="99" style="fill:#000"/><rect width="11" height="11" x="187" y="99" style="fill:#000"/><rect width="11" height="11" x="198" y="99" style="fill:#000"/><rect width="11" height="11" x="209" y="99" style="fill:#000"/><rect width="11" height="11" x="286" y="99" style="fill:#000"/><rect width="11" height="11" x="297" y="99" style="fill:#000"/><rect width="11" height="11" x="308" y="99" style="fill:#000"/><rect width="11" height="11" x="341" y="99" style="fill:#000"/><rect width="11" height="11" x="363" y="99" style="fill:#000"/><rect width="11" height="11" x="374" y="99" style="fill:#000"/>
<rect width="11" height="11" x="22" y="110" style="fill:#000"/><rect width="11" height="11" x="44" y="110" style="fill:#000"/><rect width="11" height="11" x="66" y="110" style="fill:#000"/><rect width="11" height="11" x="77" y="110" style="fill:#000"/><rect width="11" height="11" x="99" y="110" style="fill:#000"/><rect width="11" height="11" x="110" y="110" style="fill:#000"/><rect width="11" height="11" x="132" y="110" style="fill:#000"/><rect width="11" height="11" x="143" y="110" style="fill:#000"/><rect width="11" height="11" x="154" y="110" style="fill:#000"/><rect width="11" height="11" x="187" y="110" style="fill:#000"/><rect width="11" height="11" x="209" y="110" style="fill:#000"/><rect width="11" height="11" x="220" y="110" style="fill:#000"/><rect width="11" height="11" x="231" y="110" style="fill:#000"/><rect width="11" height="11" x="242" y="110" style="fill:#000"/><rect width="11" height="11" x="253" y="110" style="fill:#000"/><rect width="11" height="11" x="275" y="110" style="fill:#000"/><rect width="11" height="11" x="297" y="110" style="fill:#000"/><rect width="11" height="11" x="308" y="110" style="fill:#000"/><rect width="11" height="11" x="330" y="110" style="fill:#000"/><rect width="11" height="11" x="341" y="110" style="fill:#000"/><rect width="11" height="11" x="352" y="110" style="fill:#000"/><rect width="11" height="11" x="363" y="110" style="fill:#000"/><rect width="11" height="11" x="385" y="110" style="fill:#000"/><rect width="11" height="11" x="396" y="110" style="fill:#000"/>
<rect width="11" height="11" x="11" y="121" style="fill:#000"/><rect width="11" height="11" x="22" y="121" style="fill:#000"/><rect width="11" height="11" x="44" y="121" style="fill:#000"/><rect width="11" height="11" x="88" y="121" style="fill:#000"/><rect width="11" height="11" x="99" y="121" style="fill:#000"/><rect width="11" height="11" x="132" y="121" style="fill:#000"/><rect width="11" height="11" x="165" y="121" style="fill:#000"/><rect width="11" height="11" x="187" y="121" style="fill:#000"/><rect width="11" height="11" x="209" y="121" style="fill:#000"/><rect width="11" height="11" x="220" y="121" style="fill:#000"/><rect width="11" height="11" x="242" y="121" style="fill:#000"/><rect width="11" height="11" x="264" y="121" style="fill:#000"/><rect width="11" height="11" x="275" y="121" style="fill:#000"/><rect width="11" height="11" x="286" y="121" style="fill:#000"/><rect width="11" height="11" x="308" y="121" style="fill:#000"/><rect width="11" height="11" x="319" y="121" style="fill:#000"/><rect width="11" height="11" x="341" y="121" style="fill:#000"/><rect width="11" height="11" x="363" y="121" style="fill:#000"/><rect width="11" height="11" x="385" y="121" style="fill:#000"/><rect width="11" height="11" x="396" y="121" style="fill:#000"/>
<rect width="11" height="11" x="11" y="132" style="fill:#000"/><rect width="11" height="11" x="22" y="132" style="fill:#000"/><rect width="11" height="11" x="33" y="132" style="fill:#000"/><rect width="11" height="11" x="55" y="132" style="fill:#000"/><rect width="11" height="11" x="66" y="132" style="fill:#000"/><rect width="11" height="11" x="88" y="132" style="fill:#000"/><rect width="11" height="11" x="110" y="132" style="fill:#000"/><rect width="11" height="11" x="154" y="132" style="fill:#000"/><rect width="11" height="11" x="176" y="132" style="fill:#000"/><rect width="11" height="11" x="209" y="132" style="fill:#000"/><rect width="11" height="11" x="231" y="132" style="fill:#000"/><rect width="11" height="11" x="275" y="132" style="fill:#000"/><rect width="11" height="11" x="297" y="132" style="fill:#000"/><rect width="11" height="11" x="308" y="132" style="fill:#000"/><rect width="11" height="11" x="319" y="132" style="fill:#000"/><rect width="11" height="11" x="330" y="132" style="fill:#000"/><rect width="11" height="11" x="341" y="132" style="fill:#000"/><rect width="11" height="11" x="363" y="132" style="fill:#000"/><rect width="11" height="11" x="385" y="132" style="fill:#000"/>
<rect width="11" height="11" x="11" y="143" style="fill:#000"/><rect width="11" height="11" x="33" y="143" style="fill:#000"/><rect width="11" height="11" x="55" y="143" style="fill:#000"/><rect width="11" height="11" x="77" y="143" style="fill:#000"/><rect width="11" height="11" x="99" y="143" style="fill:#000"/><rect width="11" height="11" x="121" y="143" style="fill:#000"/><rect width="11" height="11" x="132" y="143" style="fill:#000"/><rect width="11" height="11" x="165" y="143" style="fill:#000"/><rect width="11" height="11" x="187" y="143" style="fill:#000"/><rect width="11" height="11" x="209" y="143" style="fill:#000"/><rect width="11" height="11" x="220" y="143" style="fill:#000"/><rect width="11" height="11" x="264" y="143" style="fill:#000"/><rect width="11" height="11" x="275" y="143" style="fill:#000"/><rect width="11" height="11" x="308" y="143" style="fill:#000"/><rect width="11" height="11" x="330" y="143" style="fill:#000"/><rect width="11" height="11" x="341" y="143" style="fill:#000"/><rect width="11" height="11" x="363" y="143" style="fill:#000"/><rect width="11" height="11" x="374" y="143" style="fill:#000"/><rect width="11" height="11" x="385" y="143" style="fill:#000"/><rect width="11" height="11" x="396" y="143" style="fill:#000"/>
<rect width="11" height="11" x="11" y="154" style="fill:#000"/><rect width="11" height="11" x="44" y="154" style="fill:#000"/><rect width="11" height="11" x="55" y="154" style="fill:#000"/><rect width="11" height="11" x="66" y="154" style="fill:#000"/><rect width="11" height="11" x="77" y="154" style="fill:#000"/><rect width="11" height="11" x="88" y="154" style="fill:#000"/><rect width="11" height="11" x="99" y="154" style="fill:#000"/><rect width="11" height="11" x="121" y="154" style="fill:#000"/><rect width="11" height="11" x="132" y="154" style="fill:#000"/><rect width="11" height="11" x="198" y="154" style="fill:#000"/><rect width="11" height="11" x="209" y="154" style="fill:#000"/><rect width="11" height="11" x="220" y="154" style="fill:#000"/><rect width="11" height="11" x="242" y="154" style="fill:#000"/><rect width="11" height="11" x="253" y="154" style="fill:#000"/><rect width="11" height="11" x="264" y="154" style="fill:#000"/><rect width="11" height="11" x="319" y="154" style="fill:#000"/><rect width="11" height="11" x="330" y="154" style="fill:#000"/><rect width="11" height="11" x="352" y="154" style="fill:#000"/><rect width="11" height="11" x="374" y="154" style="fill:#000"/><rect width="11" height="11" x="385" y="154" style="fill:#000"/><rect width="11" height="11" x="396" y="154" style="fill:#000"/>
<rect width="11" height="11" x="11" y="165" style="fill:#000"/><rect width="11" height="11" x="77" y="165" style="fill:#000"/><rect width="11" height="11" x="110" y="165" style="fill:#000"/><rect width="11" height="11" x="121" y="165" style="fill:#000"/><rect width="11" height="11" x="132" y="165" style="fill:#000"/><rect width="11" height="11" x="143" y="165" style="fill:#000"/><rect width="11" height="11" x="154" y="165" style="fill:#000"/><rect width="11" height="11" x="187" y="165" style="fill:#000"/><rect width="11" height="11" x="198" y="165" style="fill:#000"/><rect width="11" height="11" x="220" y="165" style="fill:#000"/><rect width="11" height="11" x="242" y="165" style="fill:#000"/><rect width="11" height="11" x="275" y="165" style="fill:#000"/><rect width="11" height="11" x="297" y="165" style="fill:#000"/><rect width="11" height="11" x="308" y="165" style="fill:#000"/><rect width="11" height="11" x="330" y="165" style="fill:#000"/><rect width="11" height="11" x="341" y="165" style="fill:#000"/><rect width="11" height="11" x="385" y="165" style="fill:#000"/><rect width="11" height="11" x="396" y="165" style="fill:#000"/>
<rect width="11" height="11" x="0" y="176" style="fill:#000"/><rect width="11" height="11" x="11" y="176" style="fill:#000"/><rect width="11" height="11" x="33" y="176" style="fill:#000"/><rect width="11" height="11" x="55" y="176" style="fill:#000"/><rect width="11" height="11" x="66" y="176" style="fill:#000"/><rect width="11" height="11" x="88" y="176" style="fill:#000"/><rect width="11" height="11" x="99" y="176" style="fill:#000"/><rect width="11" height="11" x="121" y="176" style="fill:#000"/><rect width="11" height="11" x="143" y="176" style="fill:#000"/><rect width="11" height="11" x="154" y="176" style="fill:#000"/><rect width="11" height="11" x="209" y="176" style="fill:#000"/><rect width="11" height="11" x="220" y="176" style="fill:#000"/><rect width="11" height="11" x="275" y="176" style="fill:#000"/><rect width="11" height="11" x="286" y="176" style="fill:#000"/><rect width="11" height="11" x="308" y="176" style="fill:#000"/><rect width="11" height="11" x="319" y="176" style="fill:#000"/><rect width="11" height="11" x="330" y="176" style="fill:#000"/><rect width="11" height="11" x="363" y="176" style="fill:#000"/><rect width="11" height="11" x="396" y="176" style="fill:#000"/>
<rect width="11" height="11" x="0" y="187" style="fill:#000"/><rect width="11" height="11" x="11" y="187" style="fill:#000"/><rect width="11" height="11" x="44" y="187" style="fill:#000"/><rect width="11" height="11" x="88" y="187" style="fill:#000"/><rect width="11" height="11" x="99" y="187" style="fill:#000"/><rect width="11" height="11" x="110" y="187" style="fill:#000"/><rect width="11" height="11" x="121" y="187" style="fill:#000"/><rect width="11" height="11" x="154" y="187" style="fill:#000"/><rect width="11" height="11" x="165" y="187" style="fill:#000"/><rect width="11" height="11" x="176" y="187" style="fill:#000"/><rect width="11" height="11" x="187" y="187" style="fill:#000"/><rect width="11" height="11" x="198" y="187" style="fill:#000"/><rect width="11" height="11" x="209" y="187" style="fill:#000"/><rect width="11" height="11" x="264" y="187" style="fill:#000"/><rect width="11" height="11" x="275" y="187" style="fill:#000"/><rect width="11" height="11" x="286" y="187" style="fill:#000"/><rect width="11" height="11" x="319" y="187" style="fill:#000"/><rect width="11" height="11" x="330" y="187" style="fill:#000"/><rect width="11" height="11" x="374" y="187" style="fill:#000"/><rect width="11" height="11" x="385" y="187" style="fill:#000"/><rect width="11" height="11" x="396" y="187" style="fill:#000"/>
<rect width="11" height="11" x="33" y="198" style="fill:#000"/><rect width="11" height="11" x="66" y="198" style="fill:#000"/><rect width="11" height="11" x="88" y="198" style="fill:#000"/><rect width="11" height="11" x="110" y="198" style="fill:#000"/><rect width="11" height="11" x="143" y="198" style="fill:#000"/><rect width="11" height="11" x="154" y="198" style="fill:#000"/><rect width="11" height="11" x="165" y="198" style="fill:#000"/><rect width="11" height="11" x="176" y="198" style="fill:#000"/><rect width="11" height="11" x="198" y="198" style="fill:#000"/><rect width="11" height="11" x="220" y="198" style="fill:#000"/><rect width="11" height="11" x="242" y="198" style="fill:#000"/><rect width="11" height="11" x="319" y="198" style="fill:#000"/><rect width="11" height="11" x="330" y="198" style="fill:#000"/><rect width="11" height="11" x="363" y="198" style="fill:#000"/><rect width="11" height="11" x="374" y="198" style="fill:#000"/><rect width="11" height="11" x="385" y="198" style="fill:#000"/><rect width="11" height="11" x="396" y="198" style="fill:#000"/>
<rect width="11" height="11" x="0" y="209" style="fill:#000"/><rect width="11" height="11" x="11" y="209" style="fill:#000"/><rect width="11" height="11" x="44" y="209" style="fill:#000"/><rect width="11" height="11" x="99" y="209" style="fill:#000"/><rect width="11" height="11" x="110" y="209" style="fill:#000"/><rect width="11" height="11" x="154" y="209" style="fill:#000"/><rect width="11" height="11" x="176" y="209" style="fill:#000"/><rect width="11" height="11" x="187" y="209" style="fill:#000"/><rect width="11" height="11" x="220" y="209" style="fill:#000"/><rect width="11" height="11" x="231" y="209" style="fill:#000"/><rect width="11" height="11" x="253" y="209" style="fill:#000"/><rect width="11" height="11" x="264" y="209" style="fill:#000"/><rect width="11" height="11" x="275" y="209" style="fill:#000"/><rect width="11" height="11" x="297" y="209" style="fill:#000"/><rect width="11" height="11" x="308" y="209" style="fill:#000"/><rect width="11" height="11" x="319" y="209" style="fill:#000"/><rect width="11" height="11" x="352" y="209" style="fill:#000"/><rect width="11" height="11" x="396" y="209" style="fill:#000"/>
<rect width="11" height="11" x="22" y="220" style="fill:#000"/><rect width="11" height="11" x="44" y="220" style="fill:#000"/><rect width="11" height="11" x="66" y="220" style="fill:#000"/><rect width="11" height="11" x="77" y="220" style="fill:#000"/><rect width="11" height="11" x="99" y="220" style="fill:#000"/><rect width="11" height="11" x="143" y="220" style="fill:#000"/><rect width="11" height="11" x="154" y="220" style="fill:#000"/><rect width="11" height="11" x="165" y="220" style="fill:#000"/><rect width="11" height="11" x="198" y="220" style="fill:#000"/><rect width="11" height="11" x="209" y="220" style="fill:#000"/><rect width="11" height="11" x="264" y="220" style="fill:#000"/><rect width="11" height="11" x="308" y="220" style="fill:#000"/><rect width="11" height="11" x="330" y="220" style="fill:#000"/><rect width="11" height="11" x="341" y="220" style="fill:#000"/><rect width="11" height="11" x="363" y="220" style="fill:#000"/><rect width="11" height="11" x="396" y="220" style="fill:#000"/>
<rect width="11" height="11" x="0" y="231" style="fill:#000"/><rect width="11" height="11" x="11" y="231" style="fill:#000"/><rect width="11" height="11" x="33" y="231" style="fill:#000"/><rect width="11" height="11" x="55" y="231" style="fill:#000"/><rect width="11" height="11" x="132" y="231" style="fill:#000"/><rect width="11" height="11" x="143" y="231" style="fill:#000"/><rect width="11" height="11" x="154" y="231" style="fill:#000"/><rect width="11" height="11" x="165" y="231" style="fill:#000"/><rect width="11" height="11" x="176" y="231" style="fill:#000"/><rect width="11" height="11" x="198" y="231" style="fill:#000"/><rect width="11" height="11" x="220" y="231" style="fill:#000"/><rect width="11" height="11" x="242" y="231" style="fill:#000"/><rect width="11" height="11" x="253" y="231" style="fill:#000"/><rect width="11" height="11" x="330" y="231" style="fill:#000"/><rect width="11" height="11" x="385" y="231" style="fill:#000"/><rect width="11" height="11" x="396" y="231" style="fill:#000"/>
<rect width="11" height="11" x="33" y="242" style="fill:#000"/><rect width="11" height="11" x="44" y="242" style="fill:#000"/><rect width="11" height="11" x="55" y="242" style="fill:#000"/><rect width="11" height="11" x="66" y="242" style="fill:#000"/><rect width="11" height="11" x="99" y="242" style="fill:#000"/><rect width="11" height="11" x="110" y="242" style="fill:#000"/><rect width="11" height="11" x="187" y="242" style="fill:#000"/><rect width="11" height="11" x="198" y="242" style="fill:#000"/><rect width="11" height="11" x="220" y="242" style="fill:#000"/><rect width="11" height="11" x="253" y="242" style="fill:#000"/><rect width="11" height="11" x="264" y="242" style="fill:#000"/><rect width="11" height="11" x="275" y="242" style="fill:#000"/><rect width="11" height="11" x="308" y="242" style="fill:#000"/><rect width="11" height="11" x="319" y="242" style="fill:#000"/><rect width="11" height="11" x="352" y="242" style="fill:#000"/><rect width="11" height="11" x="363" y="242" style="fill:#000"/><rect width="11" height="11" x="385" y="242" style="fill:#000"/><rect width="11" height="11" x="396" y="242" style="fill:#000"/>
<rect width="11" height="11" x="22" y="253" style="fill:#000"/><rect width="11" height="11" x="33" y="253" style="fill:#000"/><rect width="11" height="11" x="44" y="253" style="fill:#000"/><rect width="11" height="11" x="132" y="253" style="fill:#000"/><rect width="11" height="11" x="154" y="253" style="fill:#000"/><rect width="11" height="11" x="165" y="253" style="fill:#000"/><rect width="11" height="11" x="176" y="253" style="fill:#000"/><rect width="11" height="11" x="187" y="253" style="fill:#000"/><rect width="11" height="11" x="253" y="253" style="fill:#000"/><rect width="11" height="11" x="319" y="253" style="fill:#000"/><rect width="11" height="11" x="330" y="253" style="fill:#000"/><rect width="11" height="11" x="396" y="253" style="fill:#000"/>
<rect width="11" height="11" x="0" y="264" style="fill:#000"/><rect width="11" height="11" x="22" y="264" style="fill:#000"/><rect width="11" height="11" x="44" y="264" style="fill:#000"/><rect width="11" height="11" x="66" y="264" style="fill:#000"/><rect width="11" height="11" x="77" y="264" style="fill:#000"/><rect width="11" height="11" x="88" y="264" style="fill:#000"/><rect width="11" height="11" x="110" y="264" style="fill:#000"/><rect width="11" height="11" x="121" y="264" style="fill:#000"/><rect width="11" height="11" x="143" y="264" style="fill:#000"/><rect width="11" height="11" x="187" y="264" style="fill:#000"/><rect width="11" height="11" x="220" y="264" style="fill:#000"/><rect width="11" height="11" x="253" y="264" style="fill:#000"/><rect width="11" height="11" x="264" y="264" style="fill:#000"/><rect width="11" height="11" x="297" y="264" style="fill:#000"/><rect width="11" height="11" x="319" y="264" style="fill:#000"/><rect width="11" height="11" x="352" y="264" style="fill:#000"/><rect width="11" height="11" x="374" y="264" style="fill:#000"/><rect width="11" height="11" x="396" y="264" style="fill:#000"/>
<rect width="11" height="11" x="11" y="275" style="fill:#000"/><rect width="11" height="11" x="22" y="275" style="fill:#000"/><rect width="11" height="11" x="33" y="275" style="fill:#000"/><rect width="11" height="11" x="55" y="275" style="fill:#000"/><rect width="11" height="11" x="77" y="275" style="fill:#000"/><rect width="11" height="11" x="99" y="275" style="fill:#000"/><rect width="11" height="11" x="121" y="275" style="fill:#000"/><rect width="11" height="11" x="132" y="275" style="fill:#000"/><rect width="11" height="11" x="154" y="275" style="fill:#000"/><rect width="11" height="11" x="165" y="275" style="fill:#000"/><rect width="11" height="11" x="187" y="275" style="fill:#000"/><rect width="11" height="11" x="198" y="275" style="fill:#000"/><rect width="11" height="11" x="220" y="275" style="fill:#000"/><rect width="11" height="11" x="231" y="275" style="fill:#000"/><rect width="11" height="11" x="253" y="275" style="fill:#000"/><rect width="11" height="11" x="264" y="275" style="fill:#000"/><rect width="11" height="11" x="275" y="275" style="fill:#000"/><rect width="11" height="11" x="297" y="275" style="fill:#000"/><rect width="11" height="11" x="319" y="275" style="fill:#000"/><rect width="11" height="11" x="352" y="275" style="fill:#000"/><rect width="11" height="11" x="363" y="275" style="fill:#000"/><rect width="11" height="11" x="374" y="275" style="fill:#000"/><rect width="11" height="11" x="385" y="275" style="fill:#000"/>
<rect width="11" height="11" x="0" y="286" style="fill:#000"/><rect width="11" height="11" x="44" y="286" style="fill:#000"/><rect width="11" height="11" x="66" y="286" style="fill:#000"/><rect width="11" height="11" x="88" y="286" style="fill:#000"/><rect width="11" height="11" x="99" y="286" style="fill:#000"/><rect width="11" height="11" x="132" y="286" style="fill:#000"/><rect width="11" height="11" x="154" y="286" style="fill:#000"/><rect width="11" height="11" x="187" y="286" style="fill:#000"/><rect width="11" height="11" x="198" y="286" style="fill:#000"/><rect width="11" height="11" x="209" y="286" style="fill:#000"/><rect width="11" height="11" x="220" y="286" style="fill:#000"/><rect width="11" height="11" x="231" y="286" style="fill:#000"/><rect width="11" height="11" x="242" y="286" style="fill:#000"/><rect width="11" height="11" x="253" y="286" style="fill:#000"/><rect width="11" height="11" x="264" y="286" style="fill:#000"/><rect width="11" height="11" x="275" y="286" style="fill:#000"/><rect width="11" height="11" x="330" y="286" style="fill:#000"/><rect width="11" height="11" x="363" y="286" style="fill:#000"/><rect width="11" height="11" x="374" y="286" style="fill:#000"/><rect width="11" height="11" x="385" y="286" style="fill:#000"/><rect width="11" height="11" x="396" y="286" style="fill:#000"/>
<rect width="11" height="11" x="11" y="297" style="fill:#000"/><rect width="11" height="11" x="22" y="297" style="fill:#000"/><rect width="11" height="11" x="44" y="297" style="fill:#000"/><rect width="11" height="11" x="88" y="297" style="fill:#000"/><rect width="11" height="11" x="132" y="297" style="fill:#000"/><rect width="11" height="11" x="154" y="297" style="fill:#000"/><rect width="11" height="11" x="165" y="297" style="fill:#000"/><rect width="11" height="11" x="176" y="297" style="fill:#000"/><rect width="11" height="11" x="187" y="297" style="fill:#000"/><rect width="11" height="11" x="198" y="297" style="fill:#000"/><rect width="11" height="11" x="220" y="297" style="fill:#000"/><rect width="11" height="11" x="264" y="297" style="fill:#000"/><rect width="11" height="11" x="275" y="297" style="fill:#000"/><rect width="11" height="11" x="297" y="297" style="fill:#000"/><rect width="11" height="11" x="330" y="297" style="fill:#000"/><rect width="11" height="11" x="352" y="297" style="fill:#000"/><rect width="11" height="11" x="363" y="297" style="fill:#000"/><rect width="11" height="11" x="385" y="297" style="fill:#000"/>
<rect width="11" height="11" x="0" y="308" style="fill:#000"/><rect width="11" height="11" x="22" y="308" style="fill:#000"/><rect width="11" height="11" x="33" y="308" style="fill:#000"/><rect width="11" height="11" x="66" y="308" style="fill:#000"/><rect width="11" height="11" x="88" y="308" style="fill:#000"/><rect width="11" height="11" x="99" y="308" style="fill:#000"/><rect width="11" height="11" x="110" y="308" style="fill:#000"/><rect width="11" height="11" x="121" y="308" style="fill:#000"/><rect width="11" height="11" x="143" y="308" style="fill:#000"/><rect width="11" height="11" x="154" y="308" style="fill:#000"/><rect width="11" height="11" x="165" y="308" style="fill:#000"/><rect width="11" height="11" x="176" y="308" style="fill:#000"/><rect width="11" height="11" x="198" y="308" style="fill:#000"/><rect width="11" height="11" x="209" y="308" style="fill:#000"/><rect width="11" height="11" x="231" y="308" style="fill:#000"/><rect width="11" height="11" x="253" y="308" style="fill:#000"/><rect width="11" height="11" x="275" y="308" style="fill:#000"/><rect width="11" height="11" x="308" y="308" style="fill:#000"/><rect width="11" height="11" x="319" y="308" style="fill:#000"/><rect width="11" height="11" x="330" y="308" style="fill:#000"/><rect width="11" height="11" x="341" y="308" style="fill:#000"/><rect width="11" height="11" x="352" y="308" style="fill:#000"/><rect width="11" height="11" x="374" y="308" style="fill:#000"/><rect width="11" height="11" x="385" y="308" style="fill:#000"/><rect width="11" height="11" x="396" y="308" style="fill:#000"/>
<rect width="11" height="11" x="88" y="319" style="fill:#000"/><rect width="11" height="11" x="99" y="319" style="fill:#000"/><rect width="11" height="11" x="110" y="319" style="fill:#000"/><rect width="11" height="11" x="121" y="319" style="fill:#000"/><rect width="11" height="11" x="143" y="319" style="fill:#000"/><rect width="11" height="11" x="176" y="319" style="fill:#000"/><rect width="11" height="11" x="187" y="319" style="fill:#000"/><rect width="11" height="11" x="231" y="319" style="fill:#000"/><rect width="11" height="11" x="242" y="319" style="fill:#000"/><rect width="11" height="11" x="264" y="319" style="fill:#000"/><rect width="11" height="11" x="275" y="319" style="fill:#000"/><rect width="11" height="11" x="297" y="319" style="fill:#000"/><rect width="11" height="11" x="308" y="319" style="fill:#000"/><rect width="11" height="11" x="352" y="319" style="fill:#000"/><rect width="11" height="11" x="396" y="319" style="fill:#000"/>
<rect width="11" height="11" x="0" y="330" style="fill:#000"/><rect width="11" height="11" x="11" y="330" style="fill:#000"/><rect width="11" height="11" x="22" y="330" style="fill:#000"/><rect width="11" height="11" x="33" y="330" style="fill:#000"/><rect width="11" height="11" x="44" y="330" style="fill:#000"/><rect width="11" height="11" x="55" y="330" style="fill:#000"/><rect width="11" height="11" x="66" y="330" style="fill:#000"/><rect width="11" height="11" x="110" y="330" style="fill:#000"/><rect width="11" height="11" x="121" y="330" style="fill:#000"/><rect width="11" height="11" x="132" y="330" style="fill:#000"/><rect width="11" height="11" x="176" y="330" style="fill:#000"/><rect width="11" height="11" x="187" y="330" style="fill:#000"/><rect width="11" height="11" x="220" y="330" style="fill:#000"/><rect width="11" height="11" x="231" y="330" style="fill:#000"/><rect width="11" height="11" x="242" y="330" style="fill:#000"/><rect width="11" height="11" x="308" y="330" style="fill:#000"/><rect width="11" height="11" x="330" y="330" style="fill:#000"/><rect width="11" height="11" x="352" y="330" style="fill:#000"/><rect width="11" height="11" x="374" y="330" style="fill:#000"/><rect width="11" height="11" x="385" y="330" style="fill:#000"/><rect width="11" height="11" x="396" y="330" style="fill:#000"/>
<rect width="11" height="11" x="0" y="341" style="fill:#000"/><rect width="11" height="11" x="66" y="341" style="fill:#000"/><rect width="11" height="11" x="88" y="341" style="fill:#000"/><rect width="11" height="11" x="99" y="341" style="fill:#000"/><rect width="11" height="11" x="110" y="341" style="fill:#000"/><rect width="11" height="11" x="121" y="341" style="fill:#000"/><rect width="11" height="11" x="143" y="341" style="fill:#000"/><rect width="11" height="11" x="187" y="341" style="fill:#000"/><rect width="11" height="11" x="209" y="341" style="fill:#000"/><rect width="11" height="11" x="220" y="341" style="fill:#000"/><rect width="11" height="11" x="242" y="341" style="fill:#000"/><rect width="11" height="11" x="253" y="341" style="fill:#000"/><rect width="11" height="11" x="264" y="341" style="fill:#000"/><rect width="11" height="11" x="275" y="341" style="fill:#000"/><rect width="11" height="11" x="286" y="341" style="fill:#000"/><rect width="11" height="11" x="308" y="341" style="fill:#000"/><rect width="11" height="11" x="352" y="341" style="fill:#000"/><rect width="11" height="11" x="396" y="341" style="fill:#000"/>
<rect width="11" height="11" x="0" y="352" style="fill:#000"/><rect width="11" height="11" x="22" y="352" style="fill:#000"/><rect width="11" height="11" x="33" y="352" style="fill:#000"/><rect width="11" height="11" x="44" y="352" style="fill:#000"/><rect width="11" height="11" x="66" y="352" style="fill:#000"/><rect width="11" height="11" x="88" y="352" style="fill:#000"/><rect width="11" height="11" x="110" y="352" style="fill:#000"/><rect width="11" height="11" x="154" y="352" style="fill:#000"/><rect width="11" height="11" x="165" y="352" style="fill:#000"/><rect width="11" height="11" x="187" y="352" style="fill:#000"/><rect width="11" height="11" x="209" y="352" style="fill:#000"/><rect width="11" height="11" x="231" y="352" style="fill:#000"/><rect width="11" height="11" x="242" y="352" style="fill:#000"/><rect width="11" height="11" x="308" y="352" style="fill:#000"/><rect width="11" height="11" x="319" y="352" style="fill:#000"/><rect width="11" height="11" x="330" y="352" style="fill:#000"/><rect width="11" height="11" x="341" y="352" style="fill:#000"/><rect width="11" height="11" x="352" y="352" style="fill:#000"/><rect width="11" height="11" x="363" y="352" style="fill:#000"/><rect width="11" height="11" x="385" y="352" style="fill:#000"/>
<rect width="11" height="11" x="0" y="363" style="fill:#000"/><rect width="11" height="11" x="22" y="363" style="fill:#000"/><rect width="11" height="11" x="33" y="363" style="fill:#000"/><rect width="11" height="11" x="44" y="363" style="fill:#000"/><rect width="11" height="11" x="66" y="363" style="fill:#000"/><rect width="11" height="11" x="99" y="363" style="fill:#000"/><rect width="11" height="11" x="121" y="363" style="fill:#000"/><rect width="11" height="11" x="132" y="363" style="fill:#000"/><rect width="11" height="11" x="176" y="363" style="fill:#000"/><rect width="11" height="11" x="198" y="363" style="fill:#000"/><rect width="11" height="11" x="209" y="363" style="fill:#000"/><rect width="11" height="11" x="220" y="363" style="fill:#000"/><rect width="11" height="11" x="231" y="363" style="fill:#000"/><rect width="11" height="11" x="253" y="363" style="fill:#000"/><rect width="11" height="11" x="275" y="363" style="fill:#000"/><rect width="11" height="11" x="286" y="363" style="fill:#000"/><rect width="11" height="11" x="319" y="363" style="fill:#000"/><rect width="11" height="11" x="352" y="363" style="fill:#000"/><rect width="11" height="11" x="363" y="363" style="fill:#000"/><rect width="11" height="11" x="385" y="363" style="fill:#000"/><rect width="11" height="11" x="396" y="363" style="fill:#000"/>
<rect width="11" height="11" x="0" y="374" style="fill:#000"/><rect width="11" height="11" x="22" y="374" style="fill:#000"/><rect width="11" height="11" x="33" y="374" style="fill:#000"/><rect width="11" height="11" x="44" y="374" style="fill:#000"/><rect width="11" height="11" x="66" y="374" style="fill:#000"/><rect width="11" height="11" x="88" y="374" style="fill:#000"/><rect width="11" height="11" x="99" y="374" style="fill:#000"/><rect width="11" height="11" x="110" y="374" style="fill:#000"/><rect width="11" height="11" x="121" y="374" style="fill:#000"/><rect width="11" height="11" x="132" y="374" style="fill:#000"/><rect width="11" height="11" x="143" y="374" style="fill:#000"/><rect width="11" height="11" x="176" y="374" style="fill:#000"/><rect width="11" height="11" x="187" y="374" style="fill:#000"/><rect width="11" height="11" x="209" y="374" style="fill:#000"/><rect width="11" height="11" x="220" y="374" style="fill:#000"/><rect width="11" height="11" x="242" y="374" style="fill:#000"/><rect width="11" height="11" x="319" y="374" style="fill:#000"/><rect width="11" height="11" x="341" y="374" style="fill:#000"/><rect width="11" height="11" x="352" y="374" style="fill:#000"/><rect width="11" height="11" x="363" y="374" style="fill:#000"/><rect width="11" height="11" x="396" y="374" style="fill:#000"/>
<rect width="11" height="11" x="0" y="385" style="fill:#000"/><rect width="11" height="11" x="66" y="385" style="fill:#000"/><rect width="11" height="11" x="99" y="385" style="fill:#000"/><rect width="11" height="11" x="110" y="385" style="fill:#000"/><rect width="11" height="11" x="121" y="385" style="fill:#000"/><rect width="11" height="11" x="132" y="385" style="fill:#000"/><rect width="11" height="11" x="143" y="385" style="fill:#000"/><rect width="11" height="11" x="154" y="385" style="fill:#000"/><rect width="11" height="11" x="176" y="385" style="fill:#000"/><rect width="11" height="11" x="187" y="385" style="fill:#000"/><rect width="11" height="11" x="198" y="385" style="fill:#000"/><rect width="11" height="11" x="231" y="385" style="fill:#000"/><rect width="11" height="11" x="253" y="385" style="fill:#000"/><rect width="11" height="11" x="275" y="385" style="fill:#000"/><rect width="11" height="11" x="297" y="385" style="fill:#000"/><rect width="11" height="11" x="308" y="385" style="fill:#000"/><rect width="11" height="11" x="330" y="385" style="fill:#000"/><rect width="11" height="11" x="352" y="385" style="fill:#000"/><rect width="11" height="11" x="363" y="385" style="fill:#000"/><rect width="11" height="11" x="385" y="385" style="fill:#000"/>
<rect width="11" height="11" x="0" y="396" style="fill:#000"/><rect width="11" height="11" x="11" y="396" style="fill:#000"/><rect width="11" height="11" x="22" y="396" style="fill:#000"/><rect width="11" height="11" x="33" y="396" style="fill:#000"/><rect width="11" height="11" x="44" y="396" style="fill:#000"/><rect width="11" height="11" x="55" y="396" style="fill:#000"/><rect width="11" height="11" x="66" y="396" style="fill:#000"/><rect width="11" height="11" x="99" y="396" style="fill:#000"/><rect width="11" height="11" x="110" y="396" style="fill:#000"/><rect width="11" height="11" x="121" y="396" style="fill:#000"/><rect width="11" height="11" x="132" y="396" style="fill:#000"/><rect width="11" height="11" x="143" y="396" style="fill:#000"/><rect width="11" height="11" x="154" y="396" style="fill:#000"/><rect width="11" height="11" x="176" y="396" style="fill:#000"/><rect width="11" height="11" x="198" y="396" style="fill:#000"/><rect width="11" height="11" x="209" y="396" style="fill:#000"/><rect width="11" height="11" x="220" y="396" style="fill:#000"/><rect width="11" height="11" x="275" y="396" style="fill:#000"/><rect width="11" height="11" x="286" y="396" style="fill:#000"/><rect width="11" height="11" x="297" y="396" style="fill:#000"/><rect width="11" height="11" x="308" y="396" style="fill:#000"/><rect width="11" height="11" x="330" y="396" style="fill:#000"/><rect width="11" height="11" x="385" y="396" style="fill:#000"/><rect width="11" height="11" x="396" y="396" style="fill:#000"/>
</svg>